<?xml version="1.0" encoding="UTF-8"?>
<!DOCTYPE svg PUBLIC "-//W3C//DTD SVG 1.1//EN" "http://www.w3.org/Graphics/SVG/1.1/DTD/svg11.dtd">
<!-- Creator: CorelDRAW X7 -->
<svg xmlns="http://www.w3.org/2000/svg" xml:space="preserve" width="264.771mm" height="2.7123mm" version="1.1" style="shape-rendering:geometricPrecision; text-rendering:geometricPrecision; image-rendering:optimizeQuality; fill-rule:evenodd; clip-rule:evenodd"
viewBox="0 0 30040 308"
 xmlns:xlink="http://www.w3.org/1999/xlink">
 <defs>
  <style type="text/css">
   <![CDATA[
    .fil0 {fill:#FEFEFE;fill-rule:nonzero}
   ]]>
  </style>
 </defs>
 <g id="Слой_x0020_1">
  <metadata id="CorelCorpID_0Corel-Layer"/>
  <path class="fil0" d="M28133 246c0,1 0,2 -1,3 0,1 -1,1 -3,2 -1,0 -3,1 -6,1 -2,0 -5,1 -9,1 -3,0 -6,-1 -9,-1 -2,0 -4,-1 -6,-1 -1,-1 -2,-1 -3,-2 0,-1 -1,-2 -1,-3l0 -159 0 0 -56 159c-1,1 -1,3 -2,3 -1,1 -2,2 -4,2 -2,1 -4,1 -6,1 -2,1 -5,1 -9,1 -3,0 -6,0 -9,-1 -2,0 -4,0 -6,-1 -1,-1 -2,-1 -3,-2 -1,-1 -2,-2 -2,-3l-55 -159 0 0 0 159c0,1 0,2 -1,3 0,1 -1,1 -3,2 -1,0 -3,1 -6,1 -2,0 -5,1 -9,1 -4,0 -7,-1 -9,-1 -2,0 -4,-1 -6,-1 -1,-1 -2,-1 -3,-2 0,-1 -1,-2 -1,-3l0 -174c0,-5 2,-9 4,-12 3,-3 7,-4 11,-4l26 0c5,0 9,0 12,1 4,1 7,2 9,4 2,2 4,4 6,7 2,3 3,6 4,11l42 116 1 0 44 -116c1,-4 2,-8 4,-11 2,-3 3,-5 5,-7 2,-2 5,-3 8,-4 3,-1 6,-1 10,-1l26 0c3,0 6,0 7,1 2,1 4,2 5,3 2,2 3,3 3,5 1,2 1,4 1,7l0 174zm219 -94c0,16 -2,30 -6,43 -4,13 -10,24 -18,33 -8,9 -18,15 -30,20 -12,5 -25,7 -41,7 -15,0 -28,-2 -39,-6 -12,-4 -21,-10 -29,-18 -7,-8 -13,-19 -17,-31 -3,-13 -5,-28 -5,-45 0,-16 2,-30 6,-43 4,-12 10,-23 18,-32 8,-9 17,-16 29,-20 12,-5 26,-7 41,-7 15,0 28,2 39,6 12,3 21,9 29,18 7,8 13,18 17,31 4,12 6,27 6,44zm-42 2c0,-11 -1,-20 -2,-28 -2,-9 -5,-16 -9,-22 -4,-6 -9,-11 -15,-14 -7,-3 -15,-5 -24,-5 -10,0 -18,2 -25,6 -6,3 -12,8 -16,14 -4,7 -6,14 -8,22 -2,8 -3,17 -3,26 0,11 1,20 3,29 1,8 4,16 8,22 4,6 9,10 15,14 7,3 15,4 25,4 9,0 18,-2 24,-5 7,-4 12,-9 16,-15 4,-6 7,-14 8,-22 2,-8 3,-17 3,-26zm211 68c0,3 0,5 -1,7 0,1 0,3 0,4 -1,1 -1,3 -2,3 0,1 -1,2 -2,3 -1,2 -3,3 -6,5 -4,2 -7,3 -12,5 -5,2 -10,3 -16,4 -6,1 -12,2 -19,2 -13,0 -25,-2 -36,-6 -11,-5 -20,-11 -28,-19 -7,-8 -13,-18 -17,-31 -4,-12 -6,-26 -6,-43 0,-16 2,-31 7,-44 4,-13 10,-24 18,-32 8,-9 18,-16 29,-20 11,-5 23,-7 37,-7 5,0 10,0 15,1 5,1 10,2 14,4 5,1 8,3 12,5 3,2 6,4 7,5 1,1 2,2 3,3 0,1 1,2 1,4 0,1 1,3 1,5 0,2 0,4 0,7 0,3 0,5 0,8 -1,2 -1,3 -1,5 -1,1 -2,2 -2,2 -1,1 -2,1 -3,1 -1,0 -3,0 -5,-2 -3,-2 -6,-4 -9,-6 -4,-2 -8,-4 -13,-6 -6,-2 -12,-3 -19,-3 -7,0 -14,2 -20,5 -6,3 -12,8 -16,14 -4,6 -7,13 -10,21 -2,8 -3,18 -3,28 0,12 1,22 4,30 2,9 5,15 10,21 4,5 9,9 16,12 6,3 13,4 20,4 7,0 14,-1 19,-2 5,-2 9,-4 13,-6 4,-2 7,-4 9,-5 2,-2 4,-3 5,-3 1,0 2,0 3,1 0,0 1,1 1,2 1,2 1,3 1,5 0,3 1,5 1,9zm173 24c0,2 0,2 -1,3 0,1 -2,2 -3,2 -2,1 -4,1 -6,1 -3,1 -6,1 -11,1 -4,0 -7,0 -10,-1 -3,0 -5,0 -7,-1 -1,-1 -2,-1 -3,-2 -1,-1 -2,-2 -2,-4l-16 -43c-2,-7 -4,-12 -7,-16 -2,-5 -5,-8 -8,-11 -3,-2 -6,-4 -10,-6 -3,-1 -8,-1 -12,-1l-9 0 0 78c0,1 -1,2 -1,3 -1,1 -2,1 -3,2 -2,1 -4,1 -6,1 -3,1 -6,1 -10,1 -4,0 -7,0 -10,-1 -2,0 -4,0 -6,-1 -1,-1 -2,-1 -3,-2 -1,-1 -1,-2 -1,-3l0 -185c0,-1 0,-2 1,-2 1,-1 2,-2 3,-2 2,-1 4,-1 6,-2 3,0 6,0 10,0 4,0 7,0 10,0 2,1 4,1 6,2 1,0 2,1 3,2 0,0 1,1 1,2l0 74 9 0c4,0 8,-1 12,-2 3,-1 6,-3 9,-6 3,-2 5,-6 8,-10 2,-4 4,-9 6,-16l13 -39c1,-1 1,-2 2,-3 1,-1 2,-2 4,-2 1,-1 3,-1 6,-2 2,0 6,0 10,0 4,0 7,0 10,0 2,1 4,1 6,2 1,0 2,1 3,1 0,1 1,2 1,3 0,1 -1,3 -1,5 -1,2 -1,4 -2,8l-14 34c-2,7 -4,12 -7,17 -2,4 -5,8 -8,11 -2,3 -5,6 -8,8 -3,2 -6,4 -10,5l0 0c4,2 8,4 11,6 3,2 7,5 9,8 3,4 6,8 9,13 2,4 5,10 8,17l16 41c1,4 2,7 3,9 0,1 0,2 0,3zm69 0c0,1 0,2 -1,3 0,1 -1,1 -3,2 -1,0 -3,1 -6,1 -2,0 -6,1 -10,1 -3,0 -7,-1 -9,-1 -3,0 -5,-1 -6,-1 -2,-1 -3,-1 -4,-2 0,-1 -1,-2 -1,-3l0 -185c0,-1 1,-1 1,-2 1,-1 2,-2 4,-2 1,-1 3,-1 6,-1 2,-1 6,-1 9,-1 4,0 8,0 10,1 3,0 5,0 6,1 2,0 3,1 3,2 1,1 1,1 1,2l0 185zm173 -174c0,3 0,6 0,8 -1,2 -1,4 -1,5 -1,1 -2,2 -2,3 -1,0 -2,1 -3,1l-49 0 0 157c0,1 0,2 -1,3 0,1 -1,1 -3,2 -1,0 -4,1 -6,1 -3,0 -6,1 -10,1 -4,0 -7,-1 -9,-1 -3,0 -5,-1 -6,-1 -2,-1 -3,-1 -4,-2 0,-1 -1,-2 -1,-3l0 -157 -49 0c-1,0 -1,-1 -2,-1 -1,-1 -1,-2 -2,-3 0,-1 -1,-3 -1,-5 0,-2 0,-5 0,-8 0,-3 0,-5 0,-7 0,-2 1,-4 1,-5 1,-2 1,-3 2,-3 1,-1 1,-1 2,-1l138 0c1,0 2,0 3,1 0,0 1,1 2,3 0,1 0,3 1,5 0,2 0,4 0,7zm176 174c0,1 0,2 -1,3 -1,1 -2,1 -3,2 -2,0 -4,1 -6,1 -3,0 -6,1 -10,1 -4,0 -7,-1 -9,-1 -3,0 -5,-1 -7,-1 -1,-1 -2,-1 -3,-2 0,-1 -1,-2 -1,-3l0 -79 -73 0 0 79c0,1 0,2 -1,3 -1,1 -2,1 -3,2 -2,0 -4,1 -6,1 -3,0 -6,1 -10,1 -4,0 -7,-1 -9,-1 -3,0 -5,-1 -6,-1 -2,-1 -3,-1 -4,-2 0,-1 -1,-2 -1,-3l0 -185c0,-1 1,-1 1,-2 1,-1 2,-2 4,-2 1,-1 3,-1 6,-1 2,-1 5,-1 9,-1 4,0 7,0 10,1 2,0 4,0 6,1 1,0 2,1 3,2 1,1 1,1 1,2l0 72 73 0 0 -72c0,-1 1,-1 1,-2 1,-1 2,-2 3,-2 2,-1 4,-1 7,-1 2,-1 5,-1 9,-1 4,0 7,0 10,1 2,0 4,0 6,1 1,0 2,1 3,2 1,1 1,1 1,2l0 185zm83 0c0,1 -1,2 -1,3 -1,1 -2,1 -4,2 -1,0 -3,1 -6,1 -2,0 -5,1 -9,1 -4,0 -7,-1 -10,-1 -3,0 -5,-1 -6,-1 -2,-1 -3,-1 -3,-2 -1,-1 -1,-2 -1,-3l0 -185c0,-1 0,-1 1,-2 0,-1 1,-2 3,-2 2,-1 4,-1 6,-1 3,-1 6,-1 10,-1 4,0 7,0 9,1 3,0 5,0 6,1 2,0 3,1 4,2 0,1 1,1 1,2l0 185zm247 -24c0,3 0,5 0,7 0,1 0,3 0,4 -1,1 -1,3 -2,3 0,1 -1,2 -2,3 -1,2 -3,3 -6,5 -4,2 -8,3 -12,5 -5,2 -10,3 -16,4 -6,1 -12,2 -19,2 -13,0 -25,-2 -36,-6 -11,-5 -20,-11 -28,-19 -7,-8 -13,-18 -17,-31 -4,-12 -6,-26 -6,-43 0,-16 2,-31 7,-44 4,-13 10,-24 18,-32 8,-9 18,-16 29,-20 11,-5 23,-7 37,-7 5,0 10,0 15,1 5,1 10,2 14,4 5,1 8,3 12,5 3,2 6,4 7,5 1,1 2,2 3,3 0,1 1,2 1,4 0,1 0,3 1,5 0,2 0,4 0,7 0,3 0,5 0,8 -1,2 -1,3 -1,5 -1,1 -2,2 -2,2 -1,1 -2,1 -3,1 -1,0 -3,0 -5,-2 -3,-2 -6,-4 -9,-6 -4,-2 -8,-4 -14,-6 -5,-2 -11,-3 -18,-3 -7,0 -14,2 -20,5 -7,3 -12,8 -16,14 -4,6 -8,13 -10,21 -2,8 -3,18 -3,28 0,12 1,22 3,30 3,9 6,15 11,21 4,5 9,9 15,12 7,3 14,4 21,4 7,0 13,-1 19,-2 5,-2 9,-4 13,-6 3,-2 6,-4 9,-5 2,-2 4,-3 5,-3 1,0 2,0 3,1 0,0 1,1 1,2 1,2 1,3 1,5 0,3 0,5 0,9zm69 24c0,1 0,2 -1,3 -1,1 -2,1 -3,2 -2,0 -4,1 -6,1 -3,0 -6,1 -10,1 -4,0 -7,-1 -10,-1 -2,0 -4,-1 -6,-1 -1,-1 -2,-1 -3,-2 -1,-1 -1,-2 -1,-3l0 -185c0,-1 0,-1 1,-2 1,-1 2,-2 3,-2 2,-1 4,-1 6,-1 3,-1 6,-1 10,-1 4,0 7,0 10,1 2,0 4,0 6,1 1,0 2,1 3,2 1,1 1,1 1,2l0 185zm173 -174c0,3 0,6 -1,8 0,2 0,4 -1,5 0,1 -1,2 -2,3 0,0 -1,1 -2,1l-49 0 0 157c0,1 0,2 -1,3 -1,1 -2,1 -3,2 -2,0 -4,1 -7,1 -2,0 -5,1 -9,1 -4,0 -7,-1 -10,-1 -2,0 -4,-1 -6,-1 -1,-1 -2,-1 -3,-2 -1,-1 -1,-2 -1,-3l0 -157 -49 0c-1,0 -2,-1 -3,-1 0,-1 -1,-2 -1,-3 -1,-1 -1,-3 -2,-5 0,-2 0,-5 0,-8 0,-3 0,-5 0,-7 1,-2 1,-4 2,-5 0,-2 1,-3 1,-3 1,-1 2,-1 3,-1l138 0c1,0 1,0 2,1 1,0 2,1 2,3 1,1 1,3 1,5 1,2 1,4 1,7zm168 174c0,2 0,2 -1,3 -1,1 -2,2 -3,2 -2,1 -4,1 -7,1 -2,1 -6,1 -10,1 -4,0 -8,0 -10,-1 -3,0 -5,0 -7,-1 -1,-1 -3,-1 -3,-2 -1,-1 -2,-2 -2,-4l-16 -43c-2,-7 -4,-12 -7,-16 -2,-5 -5,-8 -8,-11 -3,-2 -6,-4 -10,-6 -4,-1 -8,-1 -13,-1l-8 0 0 78c0,1 -1,2 -1,3 -1,1 -2,1 -4,2 -1,1 -3,1 -6,1 -2,1 -5,1 -9,1 -4,0 -7,0 -10,-1 -2,0 -4,0 -6,-1 -1,-1 -2,-1 -3,-2 -1,-1 -1,-2 -1,-3l0 -185c0,-1 0,-2 1,-2 1,-1 2,-2 3,-2 2,-1 4,-1 6,-2 3,0 6,0 10,0 4,0 7,0 9,0 3,1 5,1 6,2 2,0 3,1 4,2 0,0 1,1 1,2l0 74 8 0c5,0 9,-1 12,-2 4,-1 7,-3 10,-6 3,-2 5,-6 7,-10 3,-4 5,-9 7,-16l13 -39c1,-1 1,-2 2,-3 1,-1 2,-2 3,-2 2,-1 4,-1 7,-2 2,0 6,0 10,0 4,0 7,0 10,0 2,1 4,1 6,2 1,0 2,1 3,1 0,1 0,2 0,3 0,1 0,3 0,5 -1,2 -2,4 -3,8l-13 34c-2,7 -5,12 -7,17 -3,4 -5,8 -8,11 -2,3 -5,6 -8,8 -3,2 -6,4 -10,5l0 0c4,2 8,4 11,6 3,2 6,5 9,8 3,4 6,8 8,13 3,4 6,10 8,17l16 41c2,4 3,7 3,9 1,1 1,2 1,3zm188 1c0,1 0,1 -1,2 0,1 -1,2 -3,2 -1,1 -3,1 -6,1 -3,1 -6,1 -10,1 -3,0 -7,0 -9,-1 -3,0 -5,0 -6,-1 -2,0 -3,-1 -3,-2 -1,-1 -1,-1 -1,-2l0 -104c0,-3 0,-7 0,-11 0,-4 0,-7 0,-10l0 0c-1,1 -2,3 -3,5 -1,2 -2,4 -3,6 -2,2 -3,4 -4,6 -2,2 -3,4 -5,6l-68 102c0,1 -1,2 -2,3 -1,0 -2,1 -3,2 -2,0 -3,0 -5,0 -2,1 -5,1 -8,1 -4,0 -7,0 -10,-1 -2,0 -4,0 -5,-1 -2,0 -3,-1 -3,-2 -1,-1 -1,-2 -1,-3l0 -185c0,-1 1,-2 1,-2 1,-1 2,-2 4,-2 1,-1 3,-1 6,-2 2,0 5,0 9,0 4,0 7,0 10,0 2,1 4,1 6,2 1,0 2,1 3,2 1,0 1,1 1,2l0 104c0,3 0,7 0,10 0,4 -1,7 -1,11l1 0c1,-3 3,-7 6,-11 3,-4 5,-8 8,-13l68 -101c1,-1 2,-2 3,-3 0,0 1,-1 3,-2 1,0 3,0 5,-1 2,0 4,0 8,0 3,0 7,0 9,0 2,1 4,1 6,2 1,0 2,1 3,2 0,0 0,1 0,2l0 186z"/>
  <g id="_828895968">
   <path class="fil0" d="M228 222c0,1 0,2 -1,3 -1,1 -2,1 -3,2 -1,0 -3,1 -6,1 -2,0 -5,0 -9,0 -4,0 -7,0 -9,0 -3,0 -5,-1 -6,-1 -1,-1 -2,-1 -3,-2 -1,-1 -1,-2 -1,-3l0 -159 0 0 -57 159c0,1 -1,2 -2,3 -1,1 -2,2 -3,2 -2,1 -4,1 -6,1 -3,0 -6,0 -9,0 -4,0 -6,0 -9,0 -2,0 -4,-1 -6,-1 -1,-1 -3,-1 -4,-2 0,-1 -1,-2 -1,-3l-55 -159 0 0 0 159c0,1 0,2 -1,3 -1,1 -2,1 -3,2 -2,0 -4,1 -6,1 -2,0 -5,0 -9,0 -4,0 -7,0 -9,0 -3,0 -5,-1 -6,-1 -2,-1 -3,-1 -3,-2 -1,-1 -1,-2 -1,-3l0 -174c0,-5 1,-9 4,-12 3,-3 6,-4 11,-4l26 0c5,0 9,0 12,1 3,1 6,2 9,4 2,2 4,4 6,7 1,3 3,6 4,10l42 117 1 0 43 -116c2,-5 3,-8 5,-11 1,-3 3,-5 5,-7 2,-2 5,-3 7,-4 3,-1 7,-1 10,-1l27 0c3,0 5,0 7,1 2,1 4,2 5,3 1,1 2,3 3,5 1,2 1,4 1,7l0 174zm158 -10c0,3 0,5 0,7 0,2 -1,4 -1,5 -1,1 -1,2 -2,3 -1,0 -2,1 -3,1l-98 0c-3,0 -6,-1 -8,-3 -2,-2 -3,-6 -3,-10l0 -171c0,-4 1,-7 3,-9 2,-2 5,-3 8,-3l98 0c1,0 2,0 2,1 1,0 2,1 2,2 1,2 1,3 1,5 1,2 1,5 1,8 0,3 0,5 -1,7 0,2 0,3 -1,5 0,1 -1,2 -2,2 0,1 -1,1 -2,1l-70 0 0 48 59 0c1,0 2,0 3,1 0,0 1,1 1,2 1,1 1,3 2,5 0,2 0,4 0,7 0,3 0,5 0,7 -1,2 -1,4 -2,5 0,1 -1,2 -1,2 -1,1 -2,1 -3,1l-59 0 0 55 70 0c1,0 2,1 3,1 1,1 1,2 2,3 0,1 1,3 1,5 0,2 0,4 0,7zm165 -164c0,3 -1,6 -1,8 0,2 0,3 -1,5 0,1 -1,2 -2,2 -1,1 -1,1 -2,1l-49 0 0 158c0,1 -1,2 -1,3 -1,1 -2,1 -3,2 -2,0 -4,1 -7,1 -2,0 -5,0 -9,0 -4,0 -7,0 -10,0 -2,0 -4,-1 -6,-1 -1,-1 -3,-1 -3,-2 -1,-1 -1,-2 -1,-3l0 -158 -49 0c-1,0 -2,0 -3,-1 0,0 -1,-1 -1,-2 -1,-2 -1,-3 -2,-5 0,-2 0,-5 0,-8 0,-3 0,-5 0,-7 1,-3 1,-4 2,-6 0,-1 1,-2 1,-2 1,-1 2,-1 3,-1l138 0c1,0 1,0 2,1 1,0 2,1 2,2 1,2 1,3 1,6 0,2 1,4 1,7zm162 165c1,3 2,6 2,8 1,2 0,4 -1,5 -1,1 -3,2 -6,2 -3,0 -7,0 -11,0 -6,0 -10,0 -12,0 -3,0 -5,0 -7,-1 -2,0 -3,-1 -3,-2 -1,0 -1,-1 -2,-3l-13 -39 -73 0 -13 38c0,2 -1,3 -1,4 -1,1 -2,1 -3,2 -2,1 -4,1 -7,1 -2,0 -6,0 -10,0 -5,0 -8,0 -11,0 -3,0 -4,-1 -5,-2 -1,-1 -2,-3 -2,-5 1,-2 2,-5 3,-9l60 -173c1,-2 1,-3 2,-4 1,-1 2,-2 4,-3 2,0 4,-1 7,-1 3,0 8,0 13,0 6,0 10,0 14,0 3,0 6,1 8,1 2,1 4,2 4,3 1,1 2,2 3,4l60 174zm-90 -144l0 0 -27 83 55 0 -28 -83zm269 153c0,1 0,2 0,3 -1,1 -2,1 -4,2 -1,0 -3,1 -6,1 -2,0 -6,0 -9,0 -4,0 -8,0 -10,0 -3,0 -5,-1 -6,-1 -2,-1 -3,-1 -3,-2 -1,-1 -1,-2 -1,-3l0 -158 -42 0c-3,24 -6,44 -9,61 -3,17 -6,32 -9,44 -3,13 -7,23 -11,31 -4,7 -9,14 -14,18 -5,5 -11,8 -17,10 -6,1 -14,2 -22,2 -1,0 -3,0 -4,0 -1,-1 -2,-1 -2,-3 -1,-1 -2,-2 -2,-4 0,-2 0,-5 0,-8 0,-4 0,-8 0,-10 0,-3 1,-5 1,-7 0,-1 1,-2 2,-2 1,-1 2,-1 3,-1 3,0 6,-1 9,-2 3,-1 6,-4 8,-8 3,-3 5,-9 8,-15 2,-7 5,-16 7,-27 3,-11 5,-25 7,-41 3,-15 5,-34 8,-56 0,-5 1,-9 3,-11 2,-2 5,-3 8,-3l96 0c4,0 7,1 9,3 1,2 2,5 2,9l0 178zm219 -95c0,17 -2,31 -6,44 -4,13 -10,24 -18,33 -8,8 -18,15 -30,20 -11,5 -25,7 -40,7 -16,0 -29,-2 -40,-6 -11,-4 -21,-10 -29,-18 -7,-8 -13,-19 -16,-31 -4,-13 -6,-28 -6,-45 0,-16 2,-30 6,-43 4,-12 10,-23 18,-32 8,-9 18,-16 29,-20 12,-5 26,-8 41,-8 15,0 28,2 40,6 11,4 20,10 28,19 8,8 13,18 17,30 4,13 6,28 6,44zm-42 2c0,-10 -1,-19 -2,-28 -2,-8 -5,-15 -8,-21 -4,-6 -9,-11 -16,-14 -6,-3 -14,-5 -24,-5 -10,0 -18,2 -24,6 -7,3 -12,8 -16,14 -4,6 -7,14 -9,22 -2,8 -2,17 -2,26 0,11 0,20 2,29 2,8 4,15 8,22 4,6 9,10 16,13 6,4 14,5 24,5 10,0 18,-2 24,-5 7,-4 12,-9 16,-15 4,-6 7,-14 9,-22 1,-8 2,-17 2,-27zm228 93c0,1 0,2 -1,3 -1,1 -2,1 -3,2 -2,0 -4,1 -6,1 -3,0 -6,0 -10,0 -4,0 -7,0 -9,0 -3,0 -5,-1 -7,-1 -1,-1 -2,-1 -3,-2 0,-1 -1,-2 -1,-3l0 -157 -73 0 0 157c0,1 0,2 -1,3 -1,1 -2,1 -3,2 -2,0 -4,1 -6,1 -3,0 -6,0 -10,0 -4,0 -7,0 -9,0 -3,0 -5,-1 -6,-1 -2,-1 -3,-1 -4,-2 0,-1 0,-2 0,-3l0 -178c0,-4 1,-7 3,-9 2,-2 5,-3 8,-3l129 0c4,0 7,1 9,3 2,2 3,5 3,9l0 178zm195 0c0,1 -1,2 -1,3 -1,1 -2,1 -4,2 -1,0 -3,1 -6,1 -2,0 -5,0 -9,0 -4,0 -7,0 -10,0 -2,0 -5,-1 -6,-1 -2,-1 -3,-1 -3,-2 -1,-1 -1,-2 -1,-3l0 -158 -42 0c-3,24 -6,44 -9,61 -2,17 -6,32 -9,44 -3,13 -7,23 -11,31 -4,7 -9,14 -14,18 -5,5 -10,8 -17,10 -6,1 -14,2 -22,2 -1,0 -3,0 -4,0 -1,-1 -2,-1 -2,-3 -1,-1 -2,-2 -2,-4 0,-2 0,-5 0,-8 0,-4 0,-8 0,-10 0,-3 1,-5 1,-7 1,-1 1,-2 2,-2 1,-1 2,-1 3,-1 3,0 6,-1 9,-2 3,-1 6,-4 8,-8 3,-3 6,-9 8,-15 2,-7 5,-16 7,-27 3,-11 5,-25 7,-41 3,-15 5,-34 8,-56 0,-5 1,-9 3,-11 2,-2 5,-3 8,-3l96 0c4,0 7,1 9,3 2,2 3,5 3,9l0 178zm202 -9c2,3 2,6 3,8 0,2 0,4 -2,5 -1,1 -3,2 -5,2 -3,0 -7,0 -12,0 -5,0 -9,0 -12,0 -3,0 -5,0 -7,-1 -1,0 -2,-1 -3,-2 0,0 -1,-1 -1,-3l-13 -39 -74 0 -12 38c-1,2 -1,3 -2,4 -1,1 -2,1 -3,2 -1,1 -4,1 -6,1 -3,0 -6,0 -11,0 -4,0 -8,0 -11,0 -2,0 -4,-1 -5,-2 -1,-1 -1,-3 -1,-5 0,-2 1,-5 2,-9l60 -173c1,-2 2,-3 3,-4 0,-1 2,-2 3,-3 2,0 5,-1 8,-1 3,0 7,0 12,0 6,0 11,0 14,0 4,0 7,1 9,1 1,1 3,2 4,3 1,1 1,2 2,4l60 174zm-89 -144l-1 0 -27 83 55 0 -27 -83zm243 129c0,3 0,5 0,6 0,2 0,4 -1,5 0,1 0,2 -1,3 0,1 -1,2 -2,3 -1,1 -4,3 -7,5 -3,2 -7,3 -11,5 -5,2 -10,3 -16,4 -6,1 -12,2 -19,2 -14,0 -26,-2 -36,-7 -11,-4 -20,-10 -28,-18 -8,-8 -13,-18 -17,-31 -4,-12 -6,-26 -6,-43 0,-16 2,-31 6,-44 5,-13 11,-24 19,-32 8,-9 17,-16 28,-20 12,-5 24,-7 37,-7 6,0 11,0 16,1 5,1 10,2 14,4 4,1 8,3 11,5 4,2 6,3 8,5 1,1 2,2 2,3 1,1 1,2 2,4 0,1 0,3 0,5 0,2 1,4 1,7 0,3 -1,5 -1,7 0,2 0,4 -1,5 0,2 -1,3 -2,3 0,1 -1,1 -2,1 -2,0 -3,-1 -6,-2 -2,-2 -5,-4 -9,-6 -3,-2 -8,-4 -13,-6 -5,-2 -11,-3 -18,-3 -8,0 -15,2 -21,5 -6,3 -11,8 -15,14 -5,5 -8,13 -10,21 -2,8 -3,18 -3,28 0,12 1,22 3,30 3,8 6,15 10,21 5,5 10,9 16,12 6,3 13,4 21,4 7,0 13,-1 18,-3 5,-1 10,-3 13,-5 4,-2 7,-4 10,-5 2,-2 4,-3 5,-3 1,0 2,0 2,1 1,0 2,1 2,2 0,1 1,3 1,5 0,2 0,5 0,9zm159 -150c0,3 0,6 -1,8 0,2 0,3 -1,5 0,1 -1,2 -2,2 0,1 -1,1 -2,1l-49 0 0 158c0,1 0,2 -1,3 -1,1 -2,1 -3,2 -2,0 -4,1 -6,1 -3,0 -6,0 -10,0 -4,0 -7,0 -10,0 -2,0 -4,-1 -6,-1 -1,-1 -2,-1 -3,-2 -1,-1 -1,-2 -1,-3l0 -158 -49 0c-1,0 -2,0 -2,-1 -1,0 -2,-1 -2,-2 -1,-2 -1,-3 -1,-5 -1,-2 -1,-5 -1,-8 0,-3 0,-5 1,-7 0,-3 0,-4 1,-6 0,-1 1,-2 2,-2 0,-1 1,-1 2,-1l138 0c1,0 2,0 2,1 1,0 2,1 2,2 1,2 1,3 1,6 1,2 1,4 1,7zm182 174c0,1 0,2 -1,3 0,1 -2,1 -3,2 -2,0 -4,1 -6,1 -3,0 -6,0 -10,0 -4,0 -7,0 -9,0 -3,0 -5,-1 -6,-1 -2,-1 -3,-1 -4,-2 0,-1 0,-2 0,-3l0 -103c0,-4 0,-7 0,-11 0,-4 0,-7 0,-10l0 0c-1,1 -2,3 -3,5 -1,1 -2,3 -4,5 -1,3 -2,5 -4,7 -1,2 -2,4 -4,6l-68 102c-1,1 -1,2 -2,2 -1,1 -2,2 -4,2 -1,1 -3,1 -5,1 -2,0 -4,0 -7,0 -4,0 -7,0 -10,0 -2,0 -4,-1 -5,-1 -2,-1 -3,-1 -3,-2 -1,-1 -1,-2 -1,-3l0 -185c0,-1 0,-2 1,-3 1,0 2,-1 3,-2 2,0 4,0 6,-1 3,0 6,0 10,0 4,0 7,0 10,0 2,1 4,1 6,1 1,1 2,2 3,2 0,1 1,2 1,3l0 104c0,3 0,6 0,10 -1,4 -1,7 -1,11l0 0c2,-3 4,-7 7,-11 3,-5 5,-9 8,-13l68 -101c1,-1 2,-2 2,-3 1,-1 2,-1 4,-2 1,0 3,-1 5,-1 2,0 4,0 7,0 4,0 7,0 10,0 2,1 4,1 5,1 2,1 3,2 3,2 1,1 1,2 1,3l0 185zm188 0c0,1 -1,2 -1,3 -1,1 -2,1 -3,2 -2,0 -4,1 -7,1 -2,0 -6,0 -10,0 -4,0 -8,0 -10,0 -3,0 -5,-1 -7,-1 -1,-1 -3,-1 -3,-2 -1,-1 -2,-3 -2,-4l-16 -44c-2,-6 -5,-11 -7,-16 -2,-4 -5,-7 -8,-10 -3,-3 -6,-5 -10,-6 -4,-1 -8,-1 -13,-1l-9 0 0 78c0,1 0,2 0,3 -1,1 -2,1 -4,2 -1,0 -3,1 -6,1 -2,0 -5,0 -9,0 -4,0 -7,0 -10,0 -2,0 -4,-1 -6,-1 -1,-1 -2,-1 -3,-2 -1,-1 -1,-2 -1,-3l0 -185c0,-1 0,-2 1,-3 1,0 2,-1 3,-2 2,0 4,0 6,-1 3,0 6,0 10,0 4,0 7,0 9,0 3,1 5,1 6,1 2,1 3,2 4,2 0,1 0,2 0,3l0 74 9 0c5,0 9,-1 12,-2 4,-2 7,-3 10,-6 3,-3 5,-6 7,-10 3,-4 5,-10 7,-16l13 -39c1,-1 1,-2 2,-3 1,-1 2,-2 3,-2 2,-1 4,-1 6,-2 3,0 6,0 11,0 4,0 7,0 10,0 2,1 4,1 6,1 1,1 2,1 2,2 1,1 1,2 1,3 0,1 0,3 0,5 -1,2 -2,4 -3,7l-13 35c-2,7 -5,12 -7,17 -3,4 -5,8 -8,11 -2,3 -5,6 -8,8 -3,2 -7,4 -10,5l0 0c4,2 8,4 11,6 3,2 6,5 9,8 3,3 6,8 8,12 3,5 6,11 8,18l16 41c2,4 3,7 3,8 1,2 1,3 1,4zm197 -95c0,17 -2,31 -6,44 -4,13 -10,24 -18,33 -8,8 -18,15 -29,20 -12,5 -26,7 -41,7 -15,0 -29,-2 -40,-6 -11,-4 -21,-10 -28,-18 -8,-8 -14,-19 -17,-31 -4,-13 -6,-28 -6,-45 0,-16 2,-30 6,-43 4,-12 10,-23 18,-32 8,-9 18,-16 30,-20 11,-5 25,-8 41,-8 14,0 27,2 39,6 11,4 21,10 28,19 8,8 13,18 17,30 4,13 6,28 6,44zm-42 2c0,-10 0,-19 -2,-28 -2,-8 -4,-15 -8,-21 -4,-6 -9,-11 -16,-14 -6,-3 -14,-5 -24,-5 -10,0 -18,2 -24,6 -7,3 -12,8 -16,14 -4,6 -7,14 -9,22 -1,8 -2,17 -2,26 0,11 1,20 2,29 2,8 5,15 8,22 4,6 9,10 16,13 6,4 14,5 24,5 10,0 18,-2 25,-5 6,-4 11,-9 15,-15 4,-6 7,-14 9,-22 2,-8 2,-17 2,-27zm217 40c0,7 -1,13 -3,19 -2,5 -4,10 -8,15 -3,4 -7,8 -12,11 -4,3 -10,6 -15,8 -6,2 -12,3 -18,4 -7,1 -14,2 -22,2l-52 0c-3,0 -6,-1 -8,-3 -2,-2 -3,-6 -3,-10l0 -171c0,-4 1,-7 3,-9 2,-2 5,-3 8,-3l49 0c12,0 23,1 31,3 8,2 15,5 21,9 6,4 10,9 13,16 3,6 4,13 4,22 0,4 0,9 -1,13 -2,4 -3,8 -6,11 -2,4 -5,7 -8,9 -4,3 -7,5 -12,7 6,1 11,3 16,5 4,3 8,6 12,10 3,4 6,9 8,14 2,5 3,11 3,18zm-51 -83c0,-4 -1,-7 -2,-10 -1,-3 -3,-6 -5,-8 -3,-2 -6,-4 -10,-5 -3,-1 -8,-1 -14,-1l-20 0 0 50 22 0c6,0 10,0 14,-2 3,-1 6,-3 8,-5 2,-3 4,-5 5,-9 1,-3 2,-6 2,-10zm10 84c0,-4 -1,-8 -2,-12 -2,-4 -4,-7 -7,-9 -3,-2 -7,-4 -11,-6 -5,-1 -10,-2 -18,-2l-23 0 0 56 28 0c6,0 11,0 14,-2 4,-1 7,-2 10,-5 3,-2 5,-5 7,-8 1,-4 2,-7 2,-12z"/>
   <path class="fil0" d="M2821 222c0,1 0,2 -1,3 0,1 -2,1 -3,2 -2,0 -4,1 -6,1 -3,0 -6,0 -10,0 -4,0 -7,0 -9,0 -3,0 -5,-1 -7,-1 -1,-1 -2,-1 -3,-2 0,-1 -1,-2 -1,-3l0 -185c0,-1 1,-2 1,-2 1,-1 2,-2 4,-2 1,-1 3,-1 6,-2 2,0 5,0 9,0 4,0 7,0 10,0 2,1 4,1 6,2 1,0 3,1 3,2 1,0 1,1 1,2l0 185zm254 -53c0,7 -1,13 -3,19 -2,5 -4,10 -8,15 -3,4 -7,8 -12,11 -4,3 -9,6 -15,8 -6,2 -12,3 -18,4 -7,1 -14,2 -22,2l-51 0c-4,0 -7,-1 -9,-3 -2,-2 -3,-6 -3,-10l0 -171c0,-4 1,-7 3,-9 2,-2 5,-3 9,-3l49 0c12,0 22,1 30,3 8,2 15,5 21,9 6,4 10,9 13,16 3,6 4,13 4,22 0,4 0,9 -1,13 -2,4 -3,8 -6,11 -2,4 -5,7 -8,9 -4,3 -7,5 -12,7 6,1 11,3 16,5 4,3 8,6 12,10 3,4 6,9 8,14 2,5 3,11 3,18zm-51 -83c0,-4 -1,-7 -2,-10 -1,-3 -3,-6 -5,-8 -3,-2 -6,-4 -9,-5 -4,-1 -9,-1 -15,-1l-20 0 0 50 22 0c6,0 10,0 14,-2 3,-1 6,-3 8,-5 2,-3 4,-5 5,-9 1,-3 2,-6 2,-10zm10 84c0,-4 -1,-8 -2,-12 -2,-4 -4,-7 -7,-9 -3,-2 -6,-4 -11,-6 -5,-1 -10,-2 -18,-2l-23 0 0 56 28 0c6,0 11,0 14,-2 4,-1 7,-2 10,-5 3,-2 5,-5 7,-8 1,-4 2,-7 2,-12zm113 52c0,1 0,2 -1,3 0,1 -2,1 -3,2 -1,0 -4,1 -6,1 -3,0 -6,0 -10,0 -4,0 -7,0 -9,0 -3,0 -5,-1 -6,-1 -2,-1 -3,-1 -4,-2 0,-1 -1,-2 -1,-3l0 -185c0,-1 1,-2 1,-2 1,-1 2,-2 4,-2 1,-1 3,-1 6,-2 2,0 5,0 9,0 4,0 7,0 10,0 2,1 5,1 6,2 1,0 3,1 3,2 1,0 1,1 1,2l0 185zm188 0c0,1 -1,2 -1,3 -1,1 -2,1 -3,2 -2,0 -4,1 -7,1 -2,0 -6,0 -10,0 -4,0 -8,0 -10,0 -3,0 -5,-1 -7,-1 -1,-1 -3,-1 -3,-2 -1,-1 -2,-3 -2,-4l-16 -44c-2,-6 -5,-11 -7,-16 -2,-4 -5,-7 -8,-10 -3,-3 -6,-5 -10,-6 -4,-1 -8,-1 -13,-1l-9 0 0 78c0,1 0,2 0,3 -1,1 -2,1 -4,2 -1,0 -3,1 -6,1 -2,0 -5,0 -9,0 -4,0 -7,0 -10,0 -2,0 -4,-1 -6,-1 -1,-1 -2,-1 -3,-2 -1,-1 -1,-2 -1,-3l0 -185c0,-1 0,-2 1,-3 1,0 2,-1 3,-2 2,0 4,0 6,-1 3,0 6,0 10,0 4,0 7,0 9,0 3,1 5,1 6,1 2,1 3,2 4,2 0,1 0,2 0,3l0 74 9 0c5,0 9,-1 12,-2 4,-2 7,-3 10,-6 3,-3 5,-6 7,-10 3,-4 5,-10 7,-16l13 -39c1,-1 1,-2 2,-3 1,-1 2,-2 3,-2 2,-1 4,-1 6,-2 3,0 6,0 11,0 4,0 7,0 9,0 3,1 5,1 7,1 1,1 2,1 2,2 1,1 1,2 1,3 0,1 0,3 0,5 -1,2 -2,4 -3,7l-13 35c-2,7 -5,12 -7,17 -3,4 -5,8 -8,11 -2,3 -5,6 -8,8 -3,2 -7,4 -10,5l0 0c4,2 8,4 11,6 3,2 6,5 9,8 3,3 6,8 8,12 3,5 6,11 8,18l16 41c2,4 3,7 3,8 1,2 1,3 1,4zm182 0c0,1 -1,2 -1,3 -1,1 -2,1 -3,2 -2,0 -4,1 -6,1 -3,0 -6,0 -10,0 -4,0 -7,0 -10,0 -2,0 -4,-1 -6,-1 -1,-1 -2,-1 -3,-2 -1,-1 -1,-2 -1,-3l0 -79 -73 0 0 79c0,1 -1,2 -1,3 -1,1 -2,1 -3,2 -2,0 -4,1 -6,1 -3,0 -6,0 -10,0 -4,0 -7,0 -10,0 -2,0 -4,-1 -6,-1 -1,-1 -2,-1 -3,-2 -1,-1 -1,-2 -1,-3l0 -185c0,-1 0,-2 1,-2 1,-1 2,-2 3,-2 2,-1 4,-1 6,-2 3,0 6,0 10,0 4,0 7,0 10,0 2,1 4,1 6,2 1,0 2,1 3,2 0,0 1,1 1,2l0 72 73 0 0 -72c0,-1 0,-2 1,-2 1,-1 2,-2 3,-2 2,-1 4,-1 6,-2 3,0 6,0 10,0 4,0 7,0 10,0 2,1 4,1 6,2 1,0 2,1 3,2 0,0 1,1 1,2l0 185zm203 -9c1,3 2,6 2,8 0,2 0,4 -1,5 -1,1 -3,2 -6,2 -3,0 -7,0 -12,0 -5,0 -9,0 -12,0 -3,0 -5,0 -6,-1 -2,0 -3,-1 -4,-2 0,0 -1,-1 -1,-3l-13 -39 -74 0 -12 38c0,2 -1,3 -2,4 0,1 -1,1 -3,2 -1,1 -3,1 -6,1 -3,0 -6,0 -10,0 -5,0 -9,0 -11,0 -3,0 -5,-1 -6,-2 -1,-1 -1,-3 -1,-5 0,-2 1,-5 2,-9l61 -173c0,-2 1,-3 2,-4 1,-1 2,-2 4,-3 1,0 4,-1 7,-1 3,0 7,0 12,0 6,0 11,0 15,0 3,0 6,1 8,1 2,1 3,2 4,3 1,1 2,2 2,4l61 174zm-90 -144l0 0 -27 83 54 0 -27 -83zm227 153c0,1 0,2 -1,3 -1,1 -2,1 -3,2 -2,0 -4,1 -6,1 -3,0 -6,0 -10,0 -4,0 -7,0 -10,0 -2,0 -4,-1 -6,-1 -1,-1 -2,-1 -3,-2 -1,-1 -1,-2 -1,-3l0 -185c0,-1 0,-2 1,-2 1,-1 2,-2 3,-2 2,-1 4,-1 6,-2 3,0 6,0 10,0 4,0 7,0 10,0 2,1 4,1 6,2 1,0 2,1 3,2 1,0 1,1 1,2l0 185zm293 52c0,1 0,1 -1,2 0,1 -1,1 -2,2 -2,0 -3,1 -6,1 -2,0 -5,0 -8,0 -4,0 -6,0 -9,0 -2,0 -4,-1 -5,-1 -1,-1 -2,-1 -3,-2 0,-1 -1,-1 -1,-2l0 -46 -130 0 0 46c0,1 0,1 -1,2 0,1 -1,1 -3,2 -1,0 -3,1 -5,1 -2,0 -5,0 -8,0 -4,0 -7,0 -9,0 -2,0 -4,-1 -5,-1 -2,-1 -3,-1 -3,-2 -1,-1 -1,-1 -1,-2l0 -71c0,-3 0,-5 2,-6 1,-1 3,-2 5,-2l9 0c3,-3 5,-7 7,-11 2,-3 5,-7 7,-12 2,-5 4,-11 6,-18 2,-7 3,-16 5,-26 2,-10 4,-21 6,-35 2,-14 4,-30 6,-48 1,-5 2,-8 4,-10 2,-2 4,-3 8,-3l100 0c3,0 6,1 8,3 2,2 3,5 3,9l0 151 17 0c2,0 4,1 5,2 2,2 2,4 2,6l0 71zm-64 -210l-45 0c-2,15 -4,29 -6,40 -1,12 -3,22 -5,31 -2,9 -4,16 -5,23 -2,6 -4,11 -6,16 -2,5 -4,9 -6,12 -2,3 -4,6 -6,9l79 0 0 -131zm233 105c0,7 -1,13 -3,19 -1,5 -4,10 -7,15 -4,4 -8,8 -12,11 -5,3 -10,6 -16,8 -6,2 -12,3 -18,4 -6,1 -14,2 -21,2l-52 0c-4,0 -6,-1 -9,-3 -2,-2 -3,-6 -3,-10l0 -171c0,-4 1,-7 3,-9 3,-2 5,-3 9,-3l49 0c12,0 22,1 30,3 8,2 15,5 21,9 6,4 10,9 13,16 3,6 5,13 5,22 0,4 -1,9 -2,13 -1,4 -3,8 -5,11 -3,4 -6,7 -9,9 -3,3 -7,5 -12,7 6,1 11,3 16,5 5,3 9,6 12,10 4,4 6,9 8,14 2,5 3,11 3,18zm-51 -83c0,-4 -1,-7 -2,-10 -1,-3 -3,-6 -5,-8 -3,-2 -6,-4 -9,-5 -4,-1 -9,-1 -15,-1l-20 0 0 50 22 0c6,0 10,0 14,-2 3,-1 6,-3 8,-5 3,-3 4,-5 5,-9 1,-3 2,-6 2,-10zm10 84c0,-4 -1,-8 -2,-12 -2,-4 -4,-7 -7,-9 -3,-2 -6,-4 -11,-6 -4,-1 -10,-2 -18,-2l-23 0 0 56 29 0c5,0 10,0 14,-2 3,-1 7,-2 9,-5 3,-2 5,-5 7,-8 1,-4 2,-7 2,-12zm189 42c0,3 0,5 0,7 0,2 -1,4 -1,5 -1,1 -1,2 -2,3 -1,0 -2,1 -3,1l-98 0c-3,0 -6,-1 -8,-3 -2,-2 -4,-6 -4,-10l0 -171c0,-4 2,-7 4,-9 2,-2 5,-3 8,-3l98 0c1,0 2,0 2,1 1,0 2,1 2,2 1,2 1,3 1,5 0,2 1,5 1,8 0,3 -1,5 -1,7 0,2 0,3 -1,5 0,1 -1,2 -2,2 0,1 -1,1 -2,1l-70 0 0 48 59 0c1,0 2,0 2,1 1,0 2,1 2,2 1,1 1,3 1,5 1,2 1,4 1,7 0,3 0,5 -1,7 0,2 0,4 -1,5 0,1 -1,2 -2,2 0,1 -1,1 -2,1l-59 0 0 55 70 0c1,0 2,1 3,1 1,1 1,2 2,3 0,1 1,3 1,5 0,2 0,4 0,7zm170 -121c0,11 -2,21 -6,30 -3,8 -8,15 -15,21 -6,6 -14,10 -24,13 -9,3 -21,5 -34,5l-16 0 0 62c0,1 0,2 -1,3 -1,1 -2,1 -3,2 -2,0 -4,1 -6,1 -3,0 -6,0 -10,0 -4,0 -7,0 -9,0 -3,0 -5,-1 -6,-1 -2,-1 -3,-1 -4,-2 0,-1 -1,-2 -1,-3l0 -176c0,-5 2,-8 4,-11 3,-2 6,-3 10,-3l46 0c5,0 9,0 13,0 4,1 9,2 15,3 6,1 12,3 18,6 6,3 11,7 16,12 4,5 7,10 9,17 2,6 4,13 4,21zm-42 3c0,-7 -1,-12 -4,-17 -2,-4 -5,-7 -9,-10 -3,-2 -7,-3 -11,-4 -4,0 -8,0 -12,0l-17 0 0 66 18 0c6,0 12,-1 16,-2 4,-2 8,-5 11,-8 2,-3 4,-6 6,-11 1,-4 2,-9 2,-14zm112 128c0,1 0,2 -1,3 -1,1 -2,1 -3,2 -2,0 -4,1 -6,1 -3,0 -6,0 -10,0 -4,0 -7,0 -9,0 -3,0 -5,-1 -7,-1 -1,-1 -2,-1 -3,-2 0,-1 -1,-2 -1,-3l0 -185c0,-1 1,-2 1,-2 1,-1 2,-2 4,-2 1,-1 3,-1 6,-2 2,0 5,0 9,0 4,0 7,0 10,0 2,1 4,1 6,2 1,0 2,1 3,2 1,0 1,1 1,2l0 185z"/>
  </g>
  <g id="_828888896">
   <path class="fil0" d="M6106 221c0,1 0,2 -1,3 -1,0 -2,1 -3,2 -1,0 -3,0 -6,1 -2,0 -5,0 -9,0 -4,0 -7,0 -9,0 -3,-1 -5,-1 -6,-1 -1,-1 -2,-2 -3,-2 -1,-1 -1,-2 -1,-3l0 -159 0 0 -57 159c0,1 -1,2 -2,3 -1,1 -2,2 -3,2 -2,1 -4,1 -6,1 -3,0 -6,0 -9,0 -4,0 -6,0 -9,0 -2,0 -4,-1 -6,-1 -1,-1 -3,-2 -4,-2 0,-1 -1,-2 -1,-3l-55 -159 0 0 0 159c0,1 -1,2 -1,3 -1,0 -2,1 -3,2 -2,0 -4,0 -6,1 -2,0 -5,0 -9,0 -4,0 -7,0 -9,0 -3,-1 -5,-1 -6,-1 -2,-1 -3,-2 -3,-2 -1,-1 -1,-2 -1,-3l0 -174c0,-6 1,-10 4,-12 3,-3 6,-4 11,-4l26 0c5,0 9,0 12,1 3,1 6,2 9,4 2,1 4,4 6,7 1,2 3,6 4,10l42 117 1 0 43 -117c2,-4 3,-7 5,-10 1,-3 3,-6 5,-7 2,-2 5,-3 7,-4 3,-1 7,-1 10,-1l27 0c3,0 5,0 7,1 2,0 4,1 5,3 1,1 2,3 3,5 1,2 1,4 1,7l0 174zm158 -10c0,3 0,5 0,7 0,2 -1,4 -1,5 -1,1 -1,2 -2,2 -1,1 -2,1 -3,1l-98 0c-3,0 -6,-1 -8,-3 -2,-2 -3,-5 -3,-9l0 -171c0,-4 1,-7 3,-9 2,-2 5,-3 8,-3l98 0c1,0 2,0 2,0 1,1 2,2 2,3 1,1 1,3 1,5 1,2 1,4 1,7 0,3 0,6 -1,8 0,2 0,3 -1,4 0,2 -1,3 -2,3 0,1 -1,1 -2,1l-70 0 0 48 59 0c1,0 2,0 2,0 1,1 2,2 2,3 1,1 1,3 2,5 0,2 0,4 0,7 0,3 0,5 0,7 -1,2 -1,4 -2,5 0,1 -1,2 -2,2 0,1 -1,1 -2,1l-59 0 0 55 70 0c1,0 2,0 3,1 1,0 1,1 2,3 0,1 1,2 1,4 0,2 0,5 0,8zm165 -164c0,3 -1,5 -1,7 0,3 0,4 -1,5 0,2 -1,3 -2,3 -1,1 -1,1 -2,1l-49 0 0 158c0,1 -1,2 -1,3 -1,0 -2,1 -3,2 -2,0 -4,0 -7,1 -2,0 -5,0 -9,0 -4,0 -7,0 -10,0 -2,-1 -4,-1 -6,-1 -1,-1 -3,-2 -3,-2 -1,-1 -1,-2 -1,-3l0 -158 -49 0c-1,0 -2,0 -3,-1 0,0 -1,-1 -2,-3 0,-1 0,-2 -1,-5 0,-2 0,-4 0,-7 0,-3 0,-6 0,-8 1,-2 1,-4 1,-5 1,-1 2,-2 2,-3 1,0 2,0 3,0l138 0c1,0 1,0 2,0 1,1 2,2 2,3 1,1 1,3 1,5 0,2 1,5 1,8zm162 165c1,3 2,6 2,8 1,2 0,4 -1,5 -1,1 -3,2 -6,2 -3,0 -7,0 -11,0 -6,0 -10,0 -12,0 -3,0 -6,0 -7,-1 -2,0 -3,-1 -3,-2 -1,-1 -1,-2 -2,-3l-13 -39 -73 0 -13 38c0,1 -1,3 -1,4 -1,1 -2,1 -3,2 -2,0 -4,1 -7,1 -2,0 -6,0 -10,0 -5,0 -8,0 -11,0 -3,-1 -4,-1 -5,-2 -1,-2 -2,-3 -2,-5 1,-2 2,-5 3,-9l60 -173c1,-2 1,-4 2,-5 1,-1 2,-1 4,-2 2,-1 4,-1 7,-1 3,0 8,0 13,0 6,0 10,0 14,0 3,0 6,0 8,1 2,1 3,1 4,2 1,2 2,3 3,5l60 174zm-90 -144l0 0 -27 83 55 0 -28 -83zm269 153c0,1 0,2 0,3 -1,1 -2,1 -4,2 -1,0 -3,1 -6,1 -2,0 -6,0 -9,0 -4,0 -8,0 -10,0 -3,0 -5,-1 -6,-1 -2,-1 -3,-1 -3,-2 -1,-1 -1,-2 -1,-3l0 -158 -42 0c-3,23 -6,43 -9,61 -3,17 -6,32 -9,44 -3,12 -7,23 -11,30 -4,8 -9,14 -14,19 -5,5 -11,8 -17,10 -6,1 -14,2 -22,2 -1,0 -3,0 -4,-1 -1,0 -2,-1 -2,-2 -1,-1 -2,-2 -2,-4 0,-2 0,-5 0,-8 0,-4 0,-8 0,-11 0,-2 0,-4 1,-6 0,-1 1,-2 2,-3 1,0 2,0 3,0 3,0 6,-1 9,-2 3,-2 5,-4 8,-8 3,-4 5,-9 8,-16 2,-6 5,-15 7,-26 3,-11 5,-25 7,-41 3,-16 5,-35 8,-56 0,-6 1,-9 3,-11 2,-2 5,-3 8,-3l96 0c4,0 7,1 8,3 2,2 3,5 3,9l0 178zm159 -10c0,3 0,5 0,7 -1,2 -1,4 -2,5 0,1 -1,2 -2,2 0,1 -1,1 -2,1l-98 0c-3,0 -6,-1 -8,-3 -3,-2 -4,-5 -4,-9l0 -171c0,-4 1,-7 4,-9 2,-2 5,-3 8,-3l98 0c0,0 1,0 2,0 1,1 1,2 2,3 0,1 1,3 1,5 0,2 0,4 0,7 0,3 0,6 0,8 0,2 -1,3 -1,4 -1,2 -1,3 -2,3 -1,1 -2,1 -2,1l-70 0 0 48 59 0c0,0 1,0 2,0 1,1 1,2 2,3 0,1 1,3 1,5 0,2 0,4 0,7 0,3 0,5 0,7 0,2 -1,4 -1,5 -1,1 -1,2 -2,2 -1,1 -2,1 -2,1l-59 0 0 55 70 0c1,0 2,0 2,1 1,0 2,1 2,3 1,1 1,2 2,4 0,2 0,5 0,8zm177 -43c0,7 -1,13 -3,19 -2,5 -5,10 -8,14 -4,5 -8,9 -12,12 -5,3 -10,5 -16,7 -5,2 -11,4 -18,5 -6,1 -13,1 -21,1l-52 0c-3,0 -6,-1 -8,-3 -3,-2 -4,-5 -4,-9l0 -171c0,-4 1,-7 4,-9 2,-2 5,-3 8,-3l49 0c12,0 22,1 30,3 9,2 16,5 21,9 6,4 10,9 13,15 3,7 5,14 5,22 0,5 -1,10 -2,14 -1,4 -3,8 -5,11 -3,4 -5,7 -9,9 -3,3 -7,5 -11,7 5,1 10,2 15,5 5,2 9,6 12,10 4,4 7,8 9,14 2,5 3,11 3,18zm-52 -83c0,-4 0,-7 -2,-10 -1,-4 -3,-6 -5,-8 -2,-2 -5,-4 -9,-5 -4,-1 -9,-2 -15,-2l-20 0 0 51 22 0c6,0 11,-1 14,-2 3,-1 6,-3 9,-5 2,-3 3,-6 5,-9 1,-3 1,-6 1,-10zm10 84c0,-4 0,-9 -2,-12 -1,-4 -4,-7 -6,-9 -3,-3 -7,-4 -12,-6 -4,-1 -10,-2 -17,-2l-24 0 0 56 29 0c5,0 10,-1 14,-2 4,-1 7,-3 10,-5 2,-2 5,-5 6,-8 2,-4 2,-8 2,-12zm114 52c0,1 -1,2 -1,3 -1,0 -2,1 -4,2 -1,0 -3,0 -6,1 -2,0 -5,0 -9,0 -4,0 -7,0 -10,0 -3,-1 -5,-1 -6,-1 -2,-1 -3,-2 -3,-2 -1,-1 -1,-2 -1,-3l0 -185c0,-1 0,-2 1,-3 0,0 1,-1 3,-2 2,0 4,-1 6,-1 3,0 6,0 10,0 4,0 7,0 9,0 3,0 5,1 6,1 2,1 3,2 4,2 0,1 1,2 1,3l0 185zm293 51c0,1 -1,2 -1,3 -1,1 -1,1 -3,2 -1,0 -3,0 -5,1 -2,0 -5,0 -9,0 -3,0 -6,0 -8,0 -2,-1 -4,-1 -5,-1 -2,-1 -3,-1 -3,-2 -1,-1 -1,-2 -1,-3l0 -46 -130 0 0 46c0,1 -1,2 -1,3 -1,1 -2,1 -3,2 -1,0 -3,0 -5,1 -3,0 -5,0 -9,0 -3,0 -6,0 -8,0 -3,-1 -4,-1 -6,-1 -1,-1 -2,-1 -3,-2 0,-1 0,-2 0,-3l0 -70c-1,-3 0,-5 1,-6 2,-2 3,-2 6,-2l9 0c2,-4 5,-7 7,-11 2,-3 4,-8 6,-13 2,-5 4,-11 6,-18 2,-6 4,-15 6,-25 2,-10 4,-22 6,-35 2,-14 4,-30 6,-48 1,-5 2,-8 3,-10 2,-2 5,-3 8,-3l100 0c4,0 7,1 9,3 2,2 3,5 3,9l0 151 16 0c3,0 5,1 6,2 1,1 2,3 2,6l0 70zm-64 -209l-46 0c-1,15 -3,29 -5,40 -2,12 -4,22 -5,31 -2,9 -4,16 -6,22 -2,7 -3,12 -5,17 -2,4 -4,8 -6,12 -2,3 -4,6 -6,9l79 0 0 -131zm233 105c0,7 -1,13 -3,19 -2,5 -4,10 -8,14 -3,5 -7,9 -12,12 -5,3 -10,5 -15,7 -6,2 -12,4 -18,5 -7,1 -14,1 -22,1l-52 0c-3,0 -6,-1 -8,-3 -2,-2 -3,-5 -3,-9l0 -171c0,-4 1,-7 3,-9 2,-2 5,-3 8,-3l49 0c12,0 22,1 31,3 8,2 15,5 21,9 5,4 10,9 13,15 3,7 4,14 4,22 0,5 0,10 -2,14 -1,4 -3,8 -5,11 -2,4 -5,7 -8,9 -4,3 -8,5 -12,7 6,1 11,2 15,5 5,2 9,6 13,10 3,4 6,8 8,14 2,5 3,11 3,18zm-51 -83c0,-4 -1,-7 -2,-10 -1,-4 -3,-6 -6,-8 -2,-2 -5,-4 -9,-5 -3,-1 -8,-2 -14,-2l-20 0 0 51 22 0c5,0 10,-1 13,-2 4,-1 7,-3 9,-5 2,-3 4,-6 5,-9 1,-3 2,-6 2,-10zm10 84c0,-4 -1,-9 -2,-12 -2,-4 -4,-7 -7,-9 -3,-3 -7,-4 -11,-6 -5,-1 -11,-2 -18,-2l-23 0 0 56 28 0c6,0 10,-1 14,-2 4,-1 7,-3 10,-5 3,-2 5,-5 6,-8 2,-4 3,-8 3,-12zm189 42c0,3 0,5 -1,7 0,2 0,4 -1,5 0,1 -1,2 -2,2 0,1 -1,1 -2,1l-98 0c-4,0 -6,-1 -9,-3 -2,-2 -3,-5 -3,-9l0 -171c0,-4 1,-7 3,-9 3,-2 5,-3 9,-3l97 0c1,0 2,0 3,0 1,1 1,2 2,3 0,1 1,3 1,5 0,2 0,4 0,7 0,3 0,6 0,8 0,2 -1,3 -1,4 -1,2 -1,3 -2,3 -1,1 -2,1 -3,1l-69 0 0 48 58 0c1,0 2,0 3,0 1,1 1,2 2,3 0,1 1,3 1,5 0,2 0,4 0,7 0,3 0,5 0,7 0,2 -1,4 -1,5 -1,1 -1,2 -2,2 -1,1 -2,1 -3,1l-58 0 0 55 70 0c1,0 2,0 2,1 1,0 2,1 2,3 1,1 1,2 1,4 1,2 1,5 1,8zm169 -121c0,11 -2,21 -5,29 -3,9 -8,16 -15,22 -7,6 -15,10 -24,13 -10,3 -21,5 -34,5l-16 0 0 62c0,1 -1,2 -1,3 -1,0 -2,1 -4,2 -1,0 -3,0 -6,1 -2,0 -5,0 -9,0 -4,0 -7,0 -10,0 -2,-1 -4,-1 -6,-1 -1,-1 -2,-2 -3,-2 -1,-1 -1,-2 -1,-3l0 -176c0,-5 1,-8 4,-11 2,-2 6,-3 10,-3l46 0c4,0 9,0 13,0 4,1 9,1 15,2 6,2 12,4 18,7 6,3 11,7 15,12 4,5 8,10 10,17 2,6 3,13 3,21zm-41 3c0,-7 -2,-13 -4,-17 -2,-4 -5,-8 -9,-10 -4,-2 -7,-3 -11,-4 -4,0 -8,-1 -12,-1l-17 0 0 67 18 0c6,0 11,-1 16,-3 4,-1 8,-4 10,-7 3,-3 5,-7 7,-11 1,-4 2,-9 2,-14zm112 128c0,1 -1,2 -1,3 -1,0 -2,1 -3,2 -2,0 -4,0 -7,1 -2,0 -5,0 -9,0 -4,0 -7,0 -10,0 -2,-1 -4,-1 -6,-1 -1,-1 -3,-2 -3,-2 -1,-1 -1,-2 -1,-3l0 -185c0,-1 0,-2 1,-3 0,0 2,-1 3,-2 2,0 4,-1 6,-1 3,0 6,0 10,0 4,0 7,0 9,0 3,0 5,1 7,1 1,1 2,2 3,2 0,1 1,2 1,3l0 185zm205 -49c-4,12 -9,21 -13,28 -4,8 -9,13 -14,18 -4,4 -10,7 -16,9 -5,1 -12,2 -19,2 -3,0 -6,0 -8,0 -3,-1 -5,-1 -8,-2 -2,0 -4,-1 -6,-2 -1,-1 -3,-2 -3,-2 -1,-1 -2,-2 -2,-3 -1,0 -1,-2 -1,-3 -1,-1 -1,-3 -1,-5 0,-3 0,-5 0,-8 0,-6 0,-10 1,-13 1,-2 2,-4 4,-4 1,0 2,1 3,1 1,1 2,2 4,3 1,0 3,1 5,2 2,1 5,1 8,1 2,0 4,0 5,-1 2,0 4,-1 6,-2 1,-2 3,-4 4,-6 2,-2 4,-5 6,-9l-65 -131c-1,-3 -2,-6 -2,-8 -1,-2 0,-3 1,-5 1,-1 3,-1 6,-2 3,0 7,0 12,0 5,0 8,0 11,0 3,0 5,1 7,1 2,1 3,2 4,3 1,1 2,3 3,5l27 59c3,7 6,13 9,19 2,7 5,13 7,19l1 0c2,-6 4,-13 6,-19 3,-7 5,-13 8,-20l22 -61c1,-1 2,-2 2,-3 1,-1 2,-2 4,-2 2,-1 4,-1 7,-1 2,0 6,0 11,0 4,0 8,0 11,0 2,0 4,1 6,2 1,1 1,2 1,3 0,2 0,4 -1,6l-53 131zm292 49c0,1 -1,2 -1,3 -1,1 -2,1 -4,2 -1,0 -3,1 -6,1 -2,0 -6,0 -10,0 -4,0 -8,0 -10,0 -3,0 -5,-1 -7,-1 -2,-1 -3,-2 -4,-3 0,-1 -1,-2 -1,-3l-16 -44c-2,-6 -5,-11 -7,-16 -3,-4 -5,-8 -8,-10 -3,-3 -6,-5 -10,-6 -4,-1 -8,-2 -13,-2l-9 0 0 79c0,1 0,2 -1,3 0,0 -1,1 -3,2 -1,0 -3,1 -6,1 -2,0 -5,0 -9,0 -4,0 -7,0 -10,0 -2,0 -5,-1 -6,-1 -2,-1 -3,-2 -3,-2 -1,-1 -1,-2 -1,-3l0 -185c0,-1 0,-2 1,-3 0,-1 1,-1 3,-2 1,0 4,-1 6,-1 3,0 6,0 10,0 4,0 7,0 9,0 3,0 5,1 6,1 2,1 3,1 3,2 1,1 1,2 1,3l0 73 9 0c5,0 9,0 12,-2 4,-1 7,-3 10,-5 2,-3 5,-6 7,-10 2,-5 5,-10 7,-16l13 -39c0,-1 1,-2 2,-3 1,-1 2,-2 3,-3 2,0 4,-1 6,-1 3,0 6,0 11,0 4,0 7,0 9,0 3,0 5,1 6,1 2,1 3,1 3,2 1,1 1,2 1,3 0,1 0,3 -1,5 0,2 -1,4 -2,7l-13 35c-2,6 -5,12 -7,16 -3,5 -5,9 -8,12 -3,3 -5,6 -8,8 -3,2 -7,3 -10,5l0 0c4,2 7,3 11,6 3,2 6,5 9,8 3,3 6,7 8,12 3,5 6,11 8,18l16 41c2,4 3,7 3,8 0,2 1,3 1,4z"/>
   <path class="fil0" d="M8696 168c0,7 -1,13 -3,19 -2,5 -5,10 -8,14 -4,5 -8,9 -12,12 -5,3 -10,5 -16,7 -5,2 -11,4 -18,5 -6,1 -13,1 -21,1l-52 0c-3,0 -6,-1 -9,-3 -2,-2 -3,-5 -3,-9l0 -171c0,-4 1,-7 3,-9 3,-2 6,-3 9,-3l49 0c12,0 22,1 30,3 9,2 16,5 21,9 6,4 10,9 13,15 3,7 5,14 5,22 0,5 -1,10 -2,14 -1,4 -3,8 -5,11 -3,4 -5,7 -9,9 -3,3 -7,5 -11,7 5,1 10,2 15,5 5,2 9,6 12,10 4,4 6,8 9,14 2,5 3,11 3,18zm-52 -83c0,-4 0,-7 -2,-10 -1,-4 -3,-6 -5,-8 -2,-2 -6,-4 -9,-5 -4,-1 -9,-2 -15,-2l-20 0 0 51 22 0c6,0 11,-1 14,-2 3,-1 6,-3 8,-5 3,-3 4,-6 6,-9 1,-3 1,-6 1,-10zm10 84c0,-4 0,-9 -2,-12 -1,-4 -4,-7 -7,-9 -2,-3 -6,-4 -11,-6 -4,-1 -10,-2 -17,-2l-24 0 0 56 29 0c5,0 10,-1 14,-2 4,-1 7,-3 10,-5 2,-2 4,-5 6,-8 2,-4 2,-8 2,-12zm230 43c1,3 2,6 2,8 1,2 0,4 -1,5 -1,1 -3,2 -6,2 -2,0 -6,0 -11,0 -5,0 -9,0 -12,0 -3,0 -5,0 -7,-1 -1,0 -2,-1 -3,-2 -1,-1 -1,-2 -2,-3l-12 -39 -74 0 -13 38c0,1 0,3 -1,4 -1,1 -2,1 -3,2 -2,0 -4,1 -6,1 -3,0 -7,0 -11,0 -5,0 -8,0 -11,0 -2,-1 -4,-1 -5,-2 -1,-2 -2,-3 -1,-5 0,-2 1,-5 2,-9l60 -173c1,-2 1,-4 2,-5 1,-1 2,-1 4,-2 2,-1 4,-1 7,-1 4,0 8,0 13,0 6,0 11,0 14,0 4,0 6,0 8,1 2,1 4,1 5,2 0,2 1,3 2,5l60 174zm-90 -144l0 0 -27 83 55 0 -28 -83zm252 22c0,11 -2,21 -6,29 -3,9 -8,16 -15,22 -6,6 -14,10 -24,13 -9,3 -20,5 -33,5l-17 0 0 62c0,1 0,2 -1,3 0,0 -2,1 -3,2 -1,0 -4,0 -6,1 -3,0 -6,0 -10,0 -3,0 -7,0 -9,0 -3,-1 -5,-1 -6,-1 -2,-1 -3,-2 -3,-2 -1,-1 -1,-2 -1,-3l0 -176c0,-5 1,-8 3,-11 3,-2 6,-3 10,-3l46 0c5,0 9,0 13,0 5,1 10,1 16,2 5,2 11,4 17,7 6,3 11,7 16,12 4,5 7,10 9,17 3,6 4,13 4,21zm-42 3c0,-7 -1,-13 -3,-17 -3,-4 -6,-8 -9,-10 -4,-2 -8,-3 -12,-4 -4,0 -8,-1 -12,-1l-17 0 0 67 18 0c7,0 12,-1 16,-3 5,-1 8,-4 11,-7 3,-3 5,-7 6,-11 1,-4 2,-9 2,-14zm201 -46c0,3 0,5 0,7 -1,3 -1,4 -1,5 -1,2 -2,3 -2,3 -1,1 -2,1 -3,1l-49 0 0 158c0,1 0,2 -1,3 0,0 -1,1 -3,2 -1,0 -4,0 -6,1 -3,0 -6,0 -10,0 -4,0 -7,0 -9,0 -3,-1 -5,-1 -6,-1 -2,-1 -3,-2 -4,-2 0,-1 -1,-2 -1,-3l0 -158 -49 0c-1,0 -1,0 -2,-1 -1,0 -1,-1 -2,-3 0,-1 -1,-2 -1,-5 0,-2 0,-4 0,-7 0,-3 0,-6 0,-8 0,-2 1,-4 1,-5 1,-1 1,-2 2,-3 1,0 1,0 2,0l138 0c1,0 2,0 3,0 0,1 1,2 2,3 0,1 0,3 1,5 0,2 0,5 0,8zm182 174c0,1 0,2 -1,3 0,1 -1,1 -3,2 -1,0 -3,1 -6,1 -3,0 -6,0 -10,0 -3,0 -7,0 -9,0 -3,0 -5,-1 -6,-1 -2,-1 -3,-1 -3,-2 -1,-1 -1,-2 -1,-3l0 -103c0,-4 0,-8 0,-11 0,-4 0,-8 0,-11l0 0c-1,2 -2,3 -3,5 -1,2 -2,4 -3,6 -2,2 -3,4 -4,7 -2,2 -3,4 -5,6l-68 101c0,1 -1,2 -2,3 -1,1 -2,2 -3,2 -2,1 -3,1 -5,1 -2,0 -5,0 -8,0 -4,0 -7,0 -9,0 -3,0 -5,-1 -6,-1 -2,-1 -2,-1 -3,-2 0,-1 -1,-2 -1,-3l0 -185c0,-1 1,-2 1,-3 1,-1 2,-1 4,-2 1,0 3,-1 6,-1 2,0 5,0 9,0 4,0 7,0 10,0 2,0 4,1 6,1 1,1 2,1 3,2 1,1 1,2 1,3l0 104c0,3 0,6 0,10 0,3 0,7 -1,10l1 0c1,-3 4,-6 6,-11 3,-4 6,-8 8,-12l68 -101c1,-1 2,-2 3,-3 0,-1 2,-1 3,-2 1,0 3,-1 5,-1 2,0 5,0 8,0 4,0 7,0 9,0 2,0 4,1 6,1 1,1 2,1 3,2 0,1 0,2 0,3l0 185zm177 -131c0,11 -2,21 -5,29 -3,9 -8,16 -15,22 -7,6 -15,10 -24,13 -10,3 -21,5 -34,5l-16 0 0 62c0,1 -1,2 -1,3 -1,0 -2,1 -3,2 -2,0 -4,0 -7,1 -2,0 -5,0 -9,0 -4,0 -7,0 -10,0 -2,-1 -4,-1 -6,-1 -1,-1 -2,-2 -3,-2 -1,-1 -1,-2 -1,-3l0 -176c0,-5 1,-8 4,-11 2,-2 6,-3 10,-3l46 0c4,0 9,0 13,0 4,1 9,1 15,2 6,2 12,4 18,7 6,3 11,7 15,12 4,5 8,10 10,17 2,6 3,13 3,21zm-41 3c0,-7 -2,-13 -4,-17 -2,-4 -5,-8 -9,-10 -4,-2 -7,-3 -11,-4 -4,0 -8,-1 -12,-1l-17 0 0 67 18 0c6,0 11,-1 16,-3 4,-1 8,-4 10,-7 3,-3 5,-7 7,-11 1,-4 2,-9 2,-14zm163 79c-4,12 -9,21 -13,28 -4,8 -9,13 -14,18 -5,4 -10,7 -16,9 -5,1 -12,2 -19,2 -3,0 -6,0 -8,0 -3,-1 -5,-1 -8,-2 -2,0 -4,-1 -6,-2 -2,-1 -3,-2 -4,-2 0,-1 -1,-2 -2,-3 0,0 0,-2 -1,-3 0,-1 0,-3 0,-5 0,-3 -1,-5 -1,-8 0,-6 1,-10 2,-13 1,-2 2,-4 4,-4 1,0 2,1 3,1 1,1 2,2 4,3 1,0 3,1 5,2 2,1 5,1 7,1 3,0 5,0 6,-1 2,0 4,-1 5,-2 2,-2 4,-4 5,-6 2,-2 4,-5 5,-9l-64 -131c-1,-3 -2,-6 -2,-8 -1,-2 0,-3 1,-5 1,-1 3,-1 6,-2 3,0 7,0 12,0 4,0 8,0 11,0 3,0 5,1 7,1 2,1 3,2 4,3 1,1 2,3 3,5l27 59c3,7 6,13 8,19 3,7 6,13 8,19l1 0c2,-6 4,-13 6,-19 3,-7 5,-13 8,-20l22 -61c1,-1 1,-2 2,-3 1,-1 2,-2 4,-2 1,-1 4,-1 7,-1 2,0 6,0 11,0 4,0 8,0 11,0 2,0 4,1 5,2 2,1 2,2 2,3 0,2 0,4 -1,6l-53 131z"/>
  </g>
  <g id="_830170448">
   <path class="fil0" d="M15554 221c0,1 -1,2 -1,3 -1,0 -2,1 -3,2 -2,0 -4,0 -6,1 -2,0 -6,0 -9,0 -4,0 -7,0 -9,0 -3,-1 -5,-1 -6,-1 -2,-1 -3,-2 -3,-2 -1,-1 -1,-2 -1,-3l0 -159 0 0 -57 159c0,1 -1,2 -2,3 -1,1 -2,2 -4,2 -1,1 -3,1 -5,1 -3,0 -6,0 -9,0 -4,0 -7,0 -9,0 -2,0 -4,-1 -6,-1 -2,-1 -3,-2 -4,-2 -1,-1 -1,-2 -2,-3l-54 -159 0 0 0 159c0,1 -1,2 -1,3 -1,0 -2,1 -3,2 -2,0 -4,0 -6,1 -3,0 -6,0 -9,0 -4,0 -7,0 -9,0 -3,-1 -5,-1 -6,-1 -2,-1 -3,-2 -3,-2 -1,-1 -1,-2 -1,-3l0 -174c0,-6 1,-10 4,-12 3,-3 6,-4 11,-4l26 0c5,0 9,0 12,1 3,1 6,2 8,4 3,1 5,4 7,7 1,2 3,6 4,10l42 117 1 0 43 -117c1,-4 3,-7 4,-10 2,-3 4,-6 6,-7 2,-2 4,-3 7,-4 3,-1 6,-1 10,-1l27 0c3,0 5,0 7,1 2,0 4,1 5,3 1,1 2,3 3,5 0,2 1,4 1,7l0 174zm82 0c0,1 0,2 -1,3 0,0 -1,1 -3,2 -1,0 -3,0 -6,1 -2,0 -6,0 -10,0 -3,0 -7,0 -9,0 -3,-1 -5,-1 -6,-1 -2,-1 -3,-2 -4,-2 0,-1 -1,-2 -1,-3l0 -185c0,-1 1,-2 1,-3 1,0 2,-1 4,-2 1,0 3,-1 6,-1 2,0 6,0 9,0 4,0 8,0 10,0 3,0 5,1 6,1 2,1 3,2 3,2 1,1 1,2 1,3l0 185zm271 0c0,1 -1,2 -1,3 -1,1 -2,1 -4,2 -1,0 -3,1 -6,1 -3,0 -6,0 -10,0 -4,0 -8,0 -11,0 -2,0 -5,-1 -6,-1 -2,-1 -3,-2 -4,-3 0,-1 -1,-2 -1,-3l-15 -45c-1,-6 -3,-11 -6,-15 -2,-4 -5,-8 -7,-10 -3,-3 -7,-5 -10,-6 -4,-1 -8,-2 -12,-2l-8 0 0 79c0,1 0,2 -1,3 -1,0 -2,1 -3,2 -2,0 -4,1 -6,1 -3,0 -6,0 -9,0 -4,0 -7,0 -10,0 -2,0 -4,-1 -6,-1 -1,-1 -2,-2 -3,-2 -1,-1 -1,-2 -1,-3l0 -79 -7 0c-5,0 -10,1 -13,2 -4,2 -7,4 -10,6 -3,3 -5,6 -8,10 -2,5 -4,10 -5,15l-14 45c-1,1 -1,2 -2,3 -1,1 -2,2 -4,3 -1,0 -4,1 -6,1 -3,0 -6,0 -11,0 -4,0 -7,0 -10,0 -3,0 -5,-1 -6,-1 -2,-1 -3,-1 -3,-2 -1,-1 -1,-2 -1,-3 0,0 0,-1 0,-2 0,0 0,-1 0,-2 0,-1 1,-2 1,-4 1,-1 1,-3 2,-4l13 -39c3,-8 5,-14 8,-19 2,-5 5,-9 8,-12 3,-4 6,-7 9,-9 3,-2 7,-4 11,-5l0 -1c-3,-1 -6,-2 -9,-4 -3,-2 -6,-5 -9,-8 -2,-3 -5,-7 -7,-12 -2,-4 -5,-10 -7,-17l-12 -35c-1,-3 -2,-6 -2,-7 0,-2 -1,-4 -1,-5 0,-1 1,-2 1,-3 1,-1 2,-1 3,-2 2,0 4,-1 6,-1 3,0 6,0 10,0 5,0 8,0 11,0 2,0 4,1 6,1 1,1 2,2 3,3 1,1 1,2 2,3l12 41c2,6 4,11 6,15 1,4 4,7 6,9 3,3 6,5 9,6 4,1 8,1 13,1l7 0 0 -73c0,-1 0,-2 1,-3 1,-1 2,-1 3,-2 2,0 4,-1 6,-1 3,0 6,0 10,0 3,0 6,0 9,0 2,0 4,1 6,1 1,1 2,1 3,2 1,1 1,2 1,3l0 73 8 0c4,0 8,0 12,-1 3,-2 6,-3 9,-6 2,-2 5,-6 7,-10 2,-3 4,-8 5,-14l12 -41c1,-1 1,-2 2,-3 1,-1 2,-2 3,-3 2,0 4,-1 7,-1 2,0 6,0 10,0 4,0 7,0 10,0 2,0 4,1 6,1 1,1 2,1 3,2 0,1 1,2 1,3 0,1 -1,3 -1,5 0,2 -1,4 -2,7l-12 35c-2,6 -4,12 -7,16 -2,5 -4,9 -7,12 -2,3 -5,5 -8,7 -3,3 -7,4 -10,6l0 0c4,2 8,4 11,6 3,2 7,5 9,8 3,4 6,8 8,13 3,5 5,11 8,19l13 39c1,1 1,3 2,4 0,2 1,3 1,4 0,1 0,2 0,2 0,1 1,2 1,2zm175 0c0,1 -1,2 -1,3 -1,1 -2,1 -4,2 -1,0 -3,1 -6,1 -2,0 -6,0 -10,0 -4,0 -8,0 -11,0 -2,0 -4,-1 -6,-1 -2,-1 -3,-2 -4,-3 0,-1 -1,-2 -1,-3l-16 -44c-2,-6 -5,-11 -7,-16 -3,-4 -5,-8 -8,-10 -3,-3 -6,-5 -10,-6 -4,-1 -8,-2 -13,-2l-9 0 0 79c0,1 0,2 -1,3 0,0 -1,1 -3,2 -1,0 -3,1 -6,1 -2,0 -5,0 -9,0 -4,0 -7,0 -10,0 -3,0 -5,-1 -6,-1 -2,-1 -3,-2 -3,-2 -1,-1 -1,-2 -1,-3l0 -185c0,-1 0,-2 1,-3 0,-1 1,-1 3,-2 1,0 3,-1 6,-1 3,0 6,0 10,0 4,0 7,0 9,0 3,0 5,1 6,1 2,1 3,1 3,2 1,1 1,2 1,3l0 73 9 0c5,0 9,0 12,-2 4,-1 7,-3 10,-5 2,-3 5,-6 7,-10 2,-5 5,-10 7,-16l13 -39c0,-1 1,-2 2,-3 0,-1 2,-2 3,-3 2,0 4,-1 6,-1 3,0 6,0 11,0 4,0 7,0 9,0 3,0 5,1 6,1 2,1 3,1 3,2 1,1 1,2 1,3 0,1 0,3 -1,5 0,2 -1,4 -2,7l-13 35c-2,6 -5,12 -7,16 -3,5 -5,9 -8,12 -3,3 -5,6 -8,8 -3,2 -7,3 -10,5l0 0c4,2 7,3 11,6 3,2 6,5 9,8 3,3 6,7 8,12 3,5 5,11 8,18l16 41c2,4 3,7 3,8 0,2 1,3 1,4zm69 0c0,1 0,2 -1,3 -1,0 -2,1 -3,2 -2,0 -4,0 -6,1 -3,0 -6,0 -10,0 -4,0 -7,0 -10,0 -2,-1 -4,-1 -6,-1 -1,-1 -2,-2 -3,-2 -1,-1 -1,-2 -1,-3l0 -185c0,-1 0,-2 1,-3 1,0 2,-1 3,-2 2,0 4,-1 6,-1 3,0 6,0 10,0 4,0 7,0 10,0 2,0 4,1 6,1 1,1 2,2 3,2 1,1 1,2 1,3l0 185zm270 0c0,1 0,2 0,3 -1,0 -2,1 -3,2 -2,0 -4,0 -6,1 -3,0 -6,0 -9,0 -4,0 -7,0 -10,0 -2,-1 -4,-1 -5,-1 -2,-1 -3,-2 -3,-2 -1,-1 -1,-2 -1,-3l0 -159 -1 0 -56 159c-1,1 -1,2 -2,3 -1,1 -2,2 -4,2 -1,1 -3,1 -6,1 -2,0 -5,0 -9,0 -3,0 -6,0 -8,0 -3,0 -5,-1 -6,-1 -2,-1 -3,-2 -4,-2 -1,-1 -1,-2 -2,-3l-54 -159 -1 0 0 159c0,1 0,2 0,3 -1,0 -2,1 -4,2 -1,0 -3,0 -5,1 -3,0 -6,0 -10,0 -3,0 -6,0 -9,0 -2,-1 -4,-1 -6,-1 -1,-1 -2,-2 -3,-2 0,-1 0,-2 0,-3l0 -174c0,-6 1,-10 4,-12 2,-3 6,-4 11,-4l26 0c4,0 8,0 12,1 3,1 6,2 8,4 3,1 5,4 6,7 2,2 3,6 5,10l42 117 0 0 44 -117c1,-4 3,-7 4,-10 2,-3 4,-6 6,-7 2,-2 4,-3 7,-4 3,-1 6,-1 10,-1l27 0c2,0 5,0 7,1 2,0 3,1 5,3 1,1 2,3 2,5 1,2 1,4 1,7l0 174zm196 0c0,1 -1,2 -1,3 -1,0 -2,1 -3,2 -2,0 -4,0 -6,1 -3,0 -6,0 -10,0 -4,0 -7,0 -10,0 -2,-1 -4,-1 -6,-1 -1,-1 -2,-2 -3,-2 -1,-1 -1,-2 -1,-3l0 -79 -73 0 0 79c0,1 -1,2 -1,3 -1,0 -2,1 -3,2 -2,0 -4,0 -6,1 -3,0 -6,0 -10,0 -4,0 -7,0 -10,0 -2,-1 -4,-1 -6,-1 -1,-1 -2,-2 -3,-2 -1,-1 -1,-2 -1,-3l0 -185c0,-1 0,-2 1,-3 1,0 2,-1 3,-2 2,0 4,-1 6,-1 3,0 6,0 10,0 4,0 7,0 10,0 2,0 4,1 6,1 1,1 2,2 3,2 0,1 1,2 1,3l0 72 73 0 0 -72c0,-1 0,-2 1,-3 1,0 2,-1 3,-2 2,0 4,-1 6,-1 3,0 6,0 10,0 4,0 7,0 10,0 2,0 4,1 6,1 1,1 2,2 3,2 0,1 1,2 1,3l0 185zm203 -9c1,3 2,6 2,8 0,2 0,4 -1,5 -1,1 -3,2 -6,2 -3,0 -7,0 -12,0 -5,0 -9,0 -12,0 -3,0 -5,0 -6,-1 -2,0 -3,-1 -4,-2 0,-1 -1,-2 -1,-3l-13 -39 -74 0 -12 38c0,1 -1,3 -2,4 0,1 -1,1 -3,2 -1,0 -3,1 -6,1 -3,0 -6,0 -10,0 -5,0 -9,0 -11,0 -3,-1 -5,-1 -6,-2 -1,-2 -1,-3 -1,-5 0,-2 1,-5 2,-9l61 -173c0,-2 1,-4 2,-5 1,-1 2,-1 4,-2 1,-1 4,-1 7,-1 3,0 7,0 12,0 6,0 11,0 15,0 3,0 6,0 8,1 2,1 3,1 4,2 1,2 2,3 2,5l61 174zm-90 -144l0 0 -27 83 54 0 -27 -83zm226 -21c0,3 0,5 0,7 -1,3 -1,4 -2,5 0,2 -1,3 -1,3 -1,1 -2,1 -3,1l-49 0 0 158c0,1 0,2 -1,3 0,0 -2,1 -3,2 -2,0 -4,0 -6,1 -3,0 -6,0 -10,0 -4,0 -7,0 -9,0 -3,-1 -5,-1 -7,-1 -1,-1 -2,-2 -3,-2 0,-1 -1,-2 -1,-3l0 -158 -49 0c-1,0 -2,0 -2,-1 -1,0 -2,-1 -2,-3 -1,-1 -1,-2 -1,-5 0,-2 -1,-4 -1,-7 0,-3 1,-6 1,-8 0,-2 0,-4 1,-5 0,-1 1,-2 2,-3 0,0 1,0 2,0l138 0c1,0 2,0 3,0 0,1 1,2 1,3 1,1 1,3 2,5 0,2 0,5 0,8zm176 174c0,1 0,2 -1,3 -1,0 -2,1 -3,2 -2,0 -4,0 -6,1 -3,0 -6,0 -10,0 -4,0 -7,0 -10,0 -2,-1 -4,-1 -6,-1 -1,-1 -2,-2 -3,-2 0,-1 -1,-2 -1,-3l0 -79 -73 0 0 79c0,1 0,2 -1,3 -1,0 -2,1 -3,2 -2,0 -4,0 -6,1 -3,0 -6,0 -10,0 -4,0 -7,0 -9,0 -3,-1 -5,-1 -7,-1 -1,-1 -2,-2 -3,-2 0,-1 -1,-2 -1,-3l0 -185c0,-1 1,-2 1,-3 1,0 2,-1 3,-2 2,0 4,-1 7,-1 2,0 5,0 9,0 4,0 7,0 10,0 2,0 4,1 6,1 1,1 2,2 3,2 1,1 1,2 1,3l0 72 73 0 0 -72c0,-1 1,-2 1,-3 1,0 2,-1 3,-2 2,0 4,-1 6,-1 3,0 6,0 10,0 4,0 7,0 10,0 2,0 4,1 6,1 1,1 2,2 3,2 1,1 1,2 1,3l0 185zm82 0c0,1 0,2 -1,3 0,0 -1,1 -3,2 -1,0 -3,0 -6,1 -2,0 -6,0 -9,0 -4,0 -8,0 -10,0 -3,-1 -5,-1 -6,-1 -2,-1 -3,-2 -3,-2 -1,-1 -1,-2 -1,-3l0 -185c0,-1 0,-2 1,-3 0,0 1,-1 3,-2 1,0 3,-1 6,-1 2,0 6,0 10,0 3,0 7,0 9,0 3,0 5,1 6,1 2,1 3,2 3,2 1,1 1,2 1,3l0 185zm294 51c0,1 -1,2 -1,3 -1,1 -2,1 -3,2 -1,0 -3,0 -5,1 -2,0 -5,0 -9,0 -3,0 -6,0 -8,0 -2,-1 -4,-1 -5,-1 -2,-1 -3,-1 -3,-2 -1,-1 -1,-2 -1,-3l0 -46 -130 0 0 46c0,1 -1,2 -1,3 -1,1 -2,1 -3,2 -2,0 -3,0 -6,1 -2,0 -5,0 -8,0 -3,0 -6,0 -9,0 -2,-1 -4,-1 -5,-1 -1,-1 -2,-1 -3,-2 0,-1 0,-2 0,-3l0 -70c-1,-3 0,-5 1,-6 1,-2 3,-2 6,-2l9 0c2,-4 5,-7 7,-11 2,-3 4,-8 6,-13 2,-5 4,-11 6,-18 2,-6 4,-15 6,-25 2,-10 4,-22 6,-35 2,-14 4,-30 6,-48 0,-5 2,-8 3,-10 2,-2 5,-3 8,-3l100 0c4,0 6,1 8,3 2,2 4,5 4,9l0 151 16 0c3,0 5,1 6,2 1,1 2,3 2,6l0 70zm-64 -209l-46 0c-2,15 -3,29 -5,40 -2,12 -4,22 -5,31 -2,9 -4,16 -6,22 -2,7 -4,12 -5,17 -2,4 -4,8 -6,12 -2,3 -4,6 -7,9l80 0 0 -131zm233 105c0,7 -1,13 -3,19 -2,5 -5,10 -8,14 -3,5 -7,9 -12,12 -5,3 -10,5 -15,7 -6,2 -12,4 -19,5 -6,1 -13,1 -21,1l-52 0c-3,0 -6,-1 -8,-3 -2,-2 -4,-5 -4,-9l0 -171c0,-4 2,-7 4,-9 2,-2 5,-3 8,-3l49 0c12,0 22,1 31,3 8,2 15,5 21,9 5,4 10,9 13,15 3,7 4,14 4,22 0,5 -1,10 -2,14 -1,4 -3,8 -5,11 -2,4 -5,7 -9,9 -3,3 -7,5 -11,7 5,1 11,2 15,5 5,2 9,6 13,10 3,4 6,8 8,14 2,5 3,11 3,18zm-52 -83c0,-4 0,-7 -1,-10 -2,-4 -3,-6 -6,-8 -2,-2 -5,-4 -9,-5 -4,-1 -8,-2 -15,-2l-20 0 0 51 23 0c5,0 10,-1 13,-2 4,-1 7,-3 9,-5 2,-3 4,-6 5,-9 1,-3 1,-6 1,-10zm11 84c0,-4 -1,-9 -3,-12 -1,-4 -3,-7 -6,-9 -3,-3 -7,-4 -11,-6 -5,-1 -11,-2 -18,-2l-24 0 0 56 29 0c6,0 10,-1 14,-2 4,-1 7,-3 10,-5 3,-2 5,-5 6,-8 2,-4 3,-8 3,-12zm189 42c0,3 0,5 -1,7 0,2 0,4 -1,5 0,1 -1,2 -2,2 0,1 -1,1 -2,1l-98 0c-4,0 -6,-1 -9,-3 -2,-2 -3,-5 -3,-9l0 -171c0,-4 1,-7 3,-9 3,-2 5,-3 9,-3l97 0c1,0 2,0 3,0 0,1 1,2 2,3 0,1 0,3 1,5 0,2 0,4 0,7 0,3 0,6 0,8 -1,2 -1,3 -1,4 -1,2 -2,3 -2,3 -1,1 -2,1 -3,1l-69 0 0 48 58 0c1,0 2,0 3,0 1,1 1,2 2,3 0,1 1,3 1,5 0,2 0,4 0,7 0,3 0,5 0,7 0,2 -1,4 -1,5 -1,1 -1,2 -2,2 -1,1 -2,1 -3,1l-58 0 0 55 70 0c1,0 2,0 2,1 1,0 2,1 2,3 1,1 1,2 1,4 1,2 1,5 1,8z"/>
   <path class="fil0" d="M17994 90c0,11 -2,21 -5,29 -4,9 -9,16 -15,22 -7,6 -15,10 -24,13 -10,3 -21,5 -34,5l-16 0 0 62c0,1 -1,2 -1,3 -1,0 -2,1 -4,2 -1,0 -3,0 -6,1 -2,0 -5,0 -9,0 -4,0 -7,0 -10,0 -2,-1 -4,-1 -6,-1 -1,-1 -3,-2 -3,-2 -1,-1 -1,-2 -1,-3l0 -176c0,-5 1,-8 4,-11 2,-2 5,-3 9,-3l47 0c4,0 9,0 13,0 4,1 9,1 15,2 6,2 12,4 18,7 6,3 11,7 15,12 4,5 7,10 10,17 2,6 3,13 3,21zm-41 3c0,-7 -2,-13 -4,-17 -3,-4 -6,-8 -9,-10 -4,-2 -7,-3 -11,-4 -4,0 -8,-1 -12,-1l-17 0 0 67 18 0c6,0 11,-1 16,-3 4,-1 7,-4 10,-7 3,-3 5,-7 6,-11 2,-4 3,-9 3,-14zm112 128c0,1 -1,2 -1,3 -1,0 -2,1 -4,2 -1,0 -3,0 -6,1 -2,0 -5,0 -9,0 -4,0 -7,0 -10,0 -3,-1 -5,-1 -6,-1 -2,-1 -3,-2 -3,-2 -1,-1 -1,-2 -1,-3l0 -185c0,-1 0,-2 1,-3 0,0 1,-1 3,-2 2,0 4,-1 6,-1 3,0 6,0 10,0 4,0 7,0 9,0 3,0 5,1 6,1 2,1 3,2 4,2 0,1 1,2 1,3l0 185z"/>
  </g>
  <path class="fil0" d="M22086 197c0,7 -1,14 -3,19 -2,6 -5,11 -8,15 -3,5 -7,8 -12,11 -5,4 -10,6 -16,8 -5,2 -11,4 -18,5 -6,1 -13,1 -21,1l-52 0c-3,0 -6,-1 -8,-3 -3,-2 -4,-5 -4,-10l0 -170c0,-5 1,-8 4,-10 2,-2 5,-3 8,-3l49 0c12,0 22,1 30,3 9,2 16,5 21,10 6,4 10,9 13,15 3,6 5,14 5,22 0,5 -1,9 -2,13 -1,5 -3,8 -5,12 -2,3 -5,6 -9,9 -3,3 -7,5 -11,6 5,1 10,3 15,6 5,2 9,5 12,9 4,4 7,9 9,14 2,6 3,12 3,18zm-52 -82c0,-4 0,-8 -1,-11 -2,-3 -3,-5 -6,-8 -2,-2 -5,-3 -9,-4 -4,-1 -9,-2 -15,-2l-20 0 0 51 22 0c6,0 11,-1 14,-2 4,-2 6,-3 9,-6 2,-2 4,-5 5,-8 1,-3 1,-7 1,-10zm11 84c0,-5 -1,-9 -3,-12 -1,-4 -3,-7 -6,-9 -3,-3 -7,-5 -12,-6 -4,-1 -10,-2 -17,-2l-24 0 0 56 29 0c5,0 10,-1 14,-2 4,-1 7,-3 10,-5 2,-2 5,-5 6,-9 2,-3 3,-7 3,-11zm249 -43c0,16 -2,31 -6,43 -4,13 -10,24 -18,33 -8,9 -18,16 -30,20 -12,5 -25,7 -41,7 -15,0 -28,-2 -40,-6 -11,-4 -20,-10 -28,-18 -7,-8 -13,-18 -17,-31 -4,-12 -6,-27 -6,-45 0,-15 2,-30 6,-42 5,-13 11,-24 19,-33 7,-8 17,-15 29,-20 12,-5 25,-7 41,-7 15,0 28,2 39,6 11,4 21,10 29,18 7,8 13,18 17,31 4,12 6,27 6,44zm-42 2c0,-10 -1,-20 -3,-28 -1,-8 -4,-16 -8,-22 -4,-6 -9,-10 -15,-14 -7,-3 -15,-5 -24,-5 -10,0 -18,2 -25,6 -6,4 -12,9 -16,15 -4,6 -7,13 -8,21 -2,9 -3,17 -3,26 0,11 1,21 3,29 1,9 4,16 8,22 4,6 9,11 15,14 7,3 15,5 25,5 9,0 17,-2 24,-6 6,-3 12,-8 16,-15 4,-6 7,-13 8,-21 2,-9 3,-18 3,-27zm209 -38c0,11 -2,21 -5,29 -3,9 -8,16 -15,21 -7,6 -15,11 -24,14 -10,3 -21,4 -34,4l-16 0 0 63c0,1 -1,2 -1,2 -1,1 -2,2 -3,2 -2,1 -4,1 -6,1 -3,1 -6,1 -10,1 -4,0 -7,0 -10,-1 -2,0 -4,0 -6,-1 -1,0 -2,-1 -3,-2 -1,0 -1,-1 -1,-2l0 -176c0,-5 1,-9 4,-11 2,-2 6,-4 10,-4l46 0c4,0 9,1 13,1 4,0 9,1 15,2 6,1 12,3 18,7 6,3 11,7 15,11 4,5 8,11 10,17 2,7 3,14 3,22zm-41 3c0,-7 -2,-13 -4,-17 -2,-5 -5,-8 -9,-10 -3,-2 -7,-4 -11,-4 -4,-1 -8,-1 -12,-1l-17 0 0 67 18 0c6,0 11,-1 16,-3 4,-2 8,-4 10,-7 3,-3 5,-7 7,-11 1,-5 2,-9 2,-14zm248 33c0,16 -2,31 -6,43 -4,13 -10,24 -18,33 -8,9 -18,16 -30,20 -12,5 -25,7 -41,7 -15,0 -28,-2 -39,-6 -12,-4 -21,-10 -29,-18 -7,-8 -13,-18 -17,-31 -3,-12 -5,-27 -5,-45 0,-15 2,-30 6,-42 4,-13 10,-24 18,-33 8,-8 17,-15 29,-20 12,-5 26,-7 41,-7 15,0 28,2 39,6 12,4 21,10 29,18 7,8 13,18 17,31 4,12 6,27 6,44zm-42 2c0,-10 -1,-20 -2,-28 -2,-8 -5,-16 -9,-22 -4,-6 -9,-10 -15,-14 -7,-3 -15,-5 -24,-5 -10,0 -18,2 -25,6 -6,4 -12,9 -16,15 -4,6 -6,13 -8,21 -2,9 -3,17 -3,26 0,11 1,21 3,29 1,9 4,16 8,22 4,6 9,11 15,14 7,3 15,5 25,5 9,0 18,-2 24,-6 7,-3 12,-8 16,-15 4,-6 7,-13 8,-21 2,-9 3,-18 3,-27zm199 -81c0,3 0,5 -1,7 0,2 0,4 -1,5 0,1 -1,2 -2,3 0,1 -1,1 -2,1l-49 0 0 158c0,1 0,2 -1,2 -1,1 -2,2 -3,2 -2,1 -4,1 -6,1 -3,1 -6,1 -10,1 -4,0 -7,0 -10,-1 -2,0 -4,0 -6,-1 -1,0 -2,-1 -3,-2 -1,0 -1,-1 -1,-2l0 -158 -49 0c-1,0 -2,0 -2,-1 -1,-1 -2,-2 -2,-3 -1,-1 -1,-3 -1,-5 -1,-2 -1,-4 -1,-7 0,-3 0,-6 1,-8 0,-2 0,-4 1,-5 0,-1 1,-2 2,-3 0,0 1,-1 2,-1l138 0c1,0 2,1 2,1 1,1 2,2 2,3 1,1 1,3 1,5 1,2 1,5 1,8zm162 164c1,4 2,7 3,9 0,2 -1,4 -2,5 -1,1 -3,1 -6,2 -2,0 -6,0 -11,0 -5,0 -9,0 -12,0 -3,0 -5,-1 -7,-1 -1,-1 -2,-1 -3,-2 -1,-1 -1,-2 -1,-3l-13 -40 -74 0 -12 39c-1,1 -1,2 -2,3 -1,1 -2,2 -3,3 -2,0 -4,0 -6,1 -3,0 -7,0 -11,0 -5,0 -8,0 -11,-1 -2,0 -4,-1 -5,-2 -1,-1 -2,-3 -1,-5 0,-2 1,-5 2,-8l60 -174c1,-1 2,-3 2,-4 1,-1 2,-2 4,-2 2,-1 4,-1 8,-1 3,-1 7,-1 12,-1 6,0 11,0 14,1 4,0 6,0 8,1 2,0 4,1 5,2 0,1 1,3 2,5l60 173zm-89 -143l-1 0 -27 83 55 0 -27 -83zm322 128c0,3 0,5 0,7 0,2 -1,3 -1,4 0,2 -1,3 -1,4 -1,1 -1,2 -3,3 -1,1 -3,2 -6,4 -3,2 -7,4 -12,5 -4,2 -9,3 -15,4 -6,2 -13,2 -19,2 -14,0 -26,-2 -37,-6 -10,-4 -20,-10 -27,-19 -8,-8 -14,-18 -18,-30 -4,-13 -6,-27 -6,-43 0,-17 3,-32 7,-44 4,-13 11,-24 19,-33 8,-9 17,-15 28,-20 11,-4 24,-7 37,-7 5,0 11,1 16,2 5,1 9,2 14,3 4,2 8,3 11,5 4,2 6,4 7,5 2,2 3,3 3,4 1,1 1,2 1,3 1,2 1,3 1,5 0,2 0,4 0,7 0,3 0,6 0,8 0,2 -1,4 -1,5 -1,1 -1,2 -2,3 -1,0 -1,1 -2,1 -2,0 -4,-1 -6,-3 -2,-2 -5,-4 -9,-6 -4,-2 -8,-4 -13,-6 -5,-1 -11,-2 -18,-2 -8,0 -15,1 -21,4 -6,4 -11,8 -16,14 -4,6 -7,13 -9,21 -3,9 -4,18 -4,29 0,11 2,21 4,29 2,9 6,16 10,21 4,6 10,10 16,12 6,3 13,4 21,4 7,0 13,0 18,-2 5,-2 10,-4 13,-6 4,-2 7,-3 9,-5 3,-2 5,-2 6,-2 1,0 2,0 2,0 1,1 1,1 2,3 0,1 0,3 1,5 0,2 0,5 0,8zm144 14c0,3 0,6 0,8 0,2 -1,3 -1,5 -1,1 -1,2 -2,2 -1,1 -2,1 -3,1l-98 0c-3,0 -6,-1 -8,-3 -2,-2 -3,-5 -3,-10l0 -170c0,-5 1,-8 3,-10 2,-2 5,-3 8,-3l98 0c1,0 2,1 2,1 1,1 2,2 2,3 1,1 1,3 1,5 1,2 1,4 1,7 0,3 0,5 -1,7 0,2 0,4 -1,5 0,1 -1,2 -2,3 0,0 -1,1 -2,1l-70 0 0 47 59 0c1,0 2,1 2,1 1,1 2,2 2,3 1,1 1,2 2,4 0,2 0,5 0,8 0,2 0,5 0,7 -1,2 -1,3 -2,4 0,2 -1,2 -2,3 0,0 -1,1 -2,1l-59 0 0 55 70 0c1,0 2,0 3,1 1,0 1,1 2,2 0,1 1,3 1,5 0,2 0,4 0,7zm180 11c0,1 0,2 0,3 -1,0 -2,1 -4,1 -1,1 -3,1 -6,2 -3,0 -6,0 -10,0 -5,0 -8,0 -11,0 -2,-1 -5,-1 -6,-2 -2,0 -3,-1 -4,-2 -1,-1 -1,-2 -2,-3l-15 -44c-3,-6 -5,-12 -7,-16 -3,-4 -5,-8 -8,-11 -3,-2 -7,-4 -10,-5 -4,-1 -8,-2 -13,-2l-9 0 0 79c0,1 0,2 -1,2 0,1 -1,2 -3,2 -1,1 -3,1 -6,2 -2,0 -6,0 -10,0 -3,0 -7,0 -9,0 -3,-1 -5,-1 -6,-2 -2,0 -3,-1 -3,-2 -1,0 -1,-1 -1,-2l0 -185c0,-1 0,-2 1,-3 0,-1 1,-2 3,-2 1,-1 3,-1 6,-1 2,0 6,-1 9,-1 4,0 8,1 10,1 3,0 5,0 6,1 2,0 3,1 3,2 1,1 1,1 1,3l0 73 9 0c5,0 9,-1 12,-2 4,-1 7,-3 9,-6 3,-2 6,-6 8,-10 2,-4 4,-9 7,-15l13 -39c0,-2 1,-3 2,-4 0,-1 1,-1 3,-2 2,-1 4,-1 6,-1 3,0 6,-1 11,-1 3,0 7,1 9,1 3,0 5,0 6,1 2,0 3,1 3,2 1,0 1,1 1,2 0,2 0,3 -1,5 0,2 -1,5 -2,8l-13 35c-3,6 -5,12 -7,16 -3,5 -5,8 -8,12 -3,3 -6,5 -9,7 -3,2 -6,4 -9,5l0 0c4,2 7,4 11,6 3,3 6,5 9,9 3,3 5,7 8,12 3,5 5,11 8,18l16 40c2,4 3,7 3,9 0,1 0,3 0,4zm205 51c0,1 0,2 0,3 -1,0 -2,1 -3,1 -1,1 -3,1 -5,1 -3,1 -5,1 -9,1 -3,0 -6,0 -8,-1 -2,0 -4,0 -6,-1 -1,0 -2,-1 -2,-1 -1,-1 -1,-2 -1,-3l0 -46 -130 0c-3,0 -6,-1 -8,-3 -2,-2 -3,-5 -3,-10l0 -178c0,-1 0,-1 1,-2 1,-1 2,-2 3,-2 2,-1 4,-1 6,-1 3,0 6,-1 10,-1 4,0 7,1 9,1 3,0 5,0 6,1 2,0 3,1 4,2 0,1 1,1 1,2l0 158 72 0 0 -158c0,-1 0,-1 1,-2 1,-1 2,-2 3,-2 2,-1 4,-1 6,-1 3,0 6,-1 10,-1 4,0 7,1 9,1 3,0 5,0 7,1 1,0 2,1 3,2 0,1 1,1 1,2l0 158 17 0c2,0 4,1 5,2 1,1 1,3 1,6l0 71zm68 -51c0,1 0,2 -1,2 0,1 -1,2 -3,2 -1,1 -3,1 -6,1 -2,1 -6,1 -10,1 -3,0 -7,0 -9,-1 -3,0 -5,0 -6,-1 -2,0 -3,-1 -4,-2 0,0 -1,-1 -1,-2l0 -185c0,-1 1,-2 1,-3 1,-1 2,-1 4,-2 1,0 3,-1 6,-1 2,0 6,-1 9,-1 4,0 8,1 10,1 3,0 5,1 6,1 2,1 3,1 3,2 1,1 1,2 1,3l0 185zm202 0c0,1 0,2 -1,3 0,0 -2,1 -3,1 -2,1 -4,1 -6,2 -3,0 -6,0 -10,0 -4,0 -7,0 -9,0 -3,-1 -5,-1 -6,-2 -2,0 -3,-1 -4,-1 0,-1 0,-2 0,-3l0 -103c0,-4 0,-8 0,-12 0,-4 0,-7 0,-10l0 0c-1,2 -2,3 -3,5 -1,2 -2,4 -4,6 -1,2 -2,4 -4,6 -1,2 -2,5 -4,7l-68 101c-1,1 -1,2 -2,3 -1,1 -2,1 -4,2 -1,0 -3,1 -5,1 -2,0 -4,0 -7,0 -4,0 -7,0 -10,0 -2,-1 -4,-1 -5,-2 -2,0 -3,-1 -3,-2 -1,0 -1,-1 -1,-2l0 -186c0,-1 0,-1 1,-2 1,-1 2,-2 3,-2 2,-1 4,-1 6,-1 3,0 6,-1 10,-1 4,0 7,1 10,1 2,0 4,0 6,1 1,0 2,1 3,2 0,1 1,1 1,2l0 104c0,3 0,7 0,11 -1,3 -1,7 -1,10l0 0c2,-3 4,-7 7,-11 3,-4 5,-8 8,-12l68 -102c1,-1 2,-2 2,-2 1,-1 2,-2 4,-2 1,-1 3,-1 5,-1 2,0 4,-1 7,-1 4,0 7,1 10,1 2,0 4,0 5,1 2,0 3,1 3,2 1,1 1,2 1,3l0 185zm-23 -243c0,5 -1,11 -3,16 -2,5 -5,9 -9,13 -4,4 -10,7 -17,10 -7,2 -15,3 -26,3 -10,0 -18,-1 -25,-3 -7,-2 -13,-5 -17,-9 -4,-3 -8,-8 -10,-13 -2,-5 -3,-11 -3,-17 0,-2 1,-3 1,-4 1,-1 2,-2 3,-2 1,-1 3,-1 5,-2 3,0 6,0 9,0 3,0 6,0 8,0 2,1 4,1 5,2 1,0 2,1 2,2 1,1 1,2 1,4 0,2 0,4 1,6 1,3 3,4 4,6 2,2 5,3 7,4 3,1 6,1 10,1 3,0 6,0 8,-1 3,-1 5,-2 7,-4 2,-1 3,-3 4,-6 1,-2 2,-4 2,-7 0,-1 0,-2 0,-3 1,-1 2,-2 3,-2 1,-1 2,-1 4,-2 2,0 5,0 8,0 4,0 7,0 9,0 2,1 4,1 6,2 1,0 2,1 2,2 1,1 1,2 1,4zm218 243c0,1 0,2 0,2 -1,1 -2,2 -4,2 -1,1 -3,1 -6,1 -2,1 -5,1 -9,1 -4,0 -7,0 -10,-1 -3,0 -5,0 -6,-1 -1,0 -2,-1 -3,-2 -1,0 -1,-1 -1,-2l0 -79 -74 0 0 79c0,1 0,2 0,2 -1,1 -2,2 -4,2 -1,1 -3,1 -6,1 -2,1 -5,1 -9,1 -4,0 -7,0 -10,-1 -2,0 -4,0 -6,-1 -1,0 -2,-1 -3,-2 -1,0 -1,-1 -1,-2l0 -185c0,-1 0,-2 1,-3 1,-1 2,-1 3,-2 2,0 4,-1 6,-1 3,0 6,-1 10,-1 4,0 7,1 9,1 3,0 5,1 6,1 2,1 3,1 4,2 0,1 0,2 0,3l0 72 74 0 0 -72c0,-1 0,-2 1,-3 1,-1 2,-1 3,-2 1,0 3,-1 6,-1 3,0 6,-1 10,-1 4,0 7,1 9,1 3,0 5,1 6,1 2,1 3,1 4,2 0,1 0,2 0,3l0 185zm83 0c0,1 0,2 -1,2 -1,1 -2,2 -3,2 -2,1 -4,1 -6,1 -3,1 -6,1 -10,1 -4,0 -7,0 -9,-1 -3,0 -5,0 -7,-1 -1,0 -2,-1 -3,-2 -1,0 -1,-1 -1,-2l0 -185c0,-1 0,-2 1,-3 1,-1 2,-1 4,-2 1,0 3,-1 6,-1 2,0 5,-1 9,-1 4,0 7,1 10,1 2,0 4,1 6,1 1,1 2,1 3,2 1,1 1,2 1,3l0 185z"/>
  <path class="fil0" d="M18947 152c0,16 -2,30 -6,43 -4,13 -10,24 -18,33 -8,9 -18,15 -30,20 -11,5 -25,7 -40,7 -15,0 -29,-2 -40,-6 -11,-4 -21,-10 -28,-18 -8,-8 -14,-19 -17,-31 -4,-13 -6,-28 -6,-45 0,-16 2,-30 6,-43 4,-12 10,-23 18,-32 8,-9 18,-16 29,-20 12,-5 26,-7 41,-7 15,0 28,2 40,6 11,3 20,9 28,18 8,8 13,18 17,31 4,12 6,27 6,44zm-42 2c0,-11 -1,-20 -2,-28 -2,-9 -5,-16 -8,-22 -4,-6 -9,-11 -16,-14 -6,-3 -14,-5 -24,-5 -10,0 -18,2 -24,6 -7,3 -12,8 -16,14 -4,7 -7,14 -9,22 -1,8 -2,17 -2,26 0,11 1,20 2,29 2,8 4,16 8,22 4,6 9,10 16,14 6,3 14,4 24,4 10,0 18,-2 24,-5 7,-4 12,-9 16,-15 4,-6 7,-14 9,-22 1,-8 2,-17 2,-26zm217 37c0,9 -1,17 -4,24 -3,8 -8,14 -14,20 -6,5 -14,9 -23,12 -9,3 -22,5 -37,5l-51 0c-4,0 -7,-1 -9,-3 -2,-2 -3,-6 -3,-10l0 -170c0,-5 1,-8 3,-10 2,-2 5,-3 8,-3l111 0c1,0 2,0 3,1 1,0 1,1 2,2 0,2 1,3 1,5 0,2 0,5 0,8 0,3 0,5 0,7 0,2 -1,4 -1,5 -1,1 -1,2 -2,2 -1,1 -2,1 -3,1l-83 0 0 49 33 0c12,0 23,1 31,4 8,2 15,6 21,10 5,5 10,11 13,18 3,7 4,14 4,23zm-40 3c0,-5 -1,-9 -2,-12 -1,-4 -3,-7 -6,-9 -3,-3 -7,-4 -11,-6 -4,-1 -10,-2 -17,-2l-26 0 0 57 26 0c7,0 12,-1 16,-2 5,-1 8,-3 11,-6 3,-2 5,-5 7,-8 1,-4 2,-8 2,-12zm111 52c0,1 -1,2 -1,3 -1,1 -2,1 -4,2 -1,0 -3,1 -6,1 -2,0 -6,1 -9,1 -4,0 -7,-1 -10,-1 -3,0 -5,-1 -6,-1 -2,-1 -3,-1 -3,-2 -1,-1 -1,-2 -1,-3l0 -185c0,-1 0,-1 1,-2 0,-1 1,-2 3,-2 1,-1 4,-1 6,-1 3,-1 6,-1 10,-1 3,0 7,0 9,1 3,0 5,0 6,1 2,0 3,1 4,2 0,1 1,1 1,2l0 185zm153 -174c0,3 0,6 0,8 -1,2 -1,4 -1,5 -1,1 -2,2 -2,3 -1,0 -2,1 -3,1l-65 0 0 158c0,1 0,1 -1,2 -1,1 -2,2 -3,2 -2,1 -4,1 -6,1 -3,1 -6,1 -10,1 -4,0 -7,0 -9,-1 -3,0 -5,0 -7,-1 -1,0 -2,-1 -3,-2 -1,-1 -1,-1 -1,-2l0 -178c0,-5 1,-8 3,-10 3,-2 5,-3 9,-3l93 0c2,0 3,1 5,4 0,2 1,7 1,12zm157 43c0,12 -2,21 -5,30 -4,8 -9,15 -15,21 -7,6 -15,10 -24,13 -10,3 -21,5 -34,5l-16 0 0 62c0,1 -1,2 -1,3 -1,1 -2,1 -4,2 -1,1 -3,1 -6,1 -2,0 -5,1 -9,1 -4,0 -7,-1 -10,-1 -2,0 -4,-1 -6,-1 -1,-1 -3,-1 -3,-2 -1,-1 -1,-2 -1,-3l0 -176c0,-4 1,-8 4,-10 2,-3 5,-4 9,-4l47 0c4,0 9,0 13,1 4,0 9,1 15,2 6,1 12,3 18,6 6,3 11,7 15,12 4,5 7,11 10,17 2,6 3,14 3,21zm-41 3c0,-6 -2,-12 -4,-17 -3,-4 -6,-7 -9,-9 -4,-3 -7,-4 -11,-4 -4,-1 -8,-1 -12,-1l-17 0 0 66 18 0c6,0 11,-1 16,-2 4,-2 7,-4 10,-8 3,-3 5,-6 6,-11 2,-4 3,-9 3,-14zm112 128c0,1 -1,2 -1,3 -1,1 -2,1 -4,2 -1,0 -3,1 -6,1 -2,0 -5,1 -9,1 -4,0 -7,-1 -10,-1 -2,0 -5,-1 -6,-1 -2,-1 -3,-1 -3,-2 -1,-1 -1,-2 -1,-3l0 -185c0,-1 0,-1 1,-2 0,-1 1,-2 3,-2 2,-1 4,-1 6,-1 3,-1 6,-1 10,-1 4,0 7,0 9,1 3,0 5,0 6,1 2,0 3,1 4,2 0,1 1,1 1,2l0 185zm184 -53c0,7 -1,13 -3,19 -2,6 -5,11 -8,15 -3,4 -7,8 -12,11 -5,3 -10,6 -16,8 -5,2 -11,3 -18,4 -6,1 -13,2 -21,2l-52 0c-3,0 -6,-1 -8,-3 -3,-2 -4,-5 -4,-10l0 -170c0,-5 1,-8 4,-10 2,-2 5,-3 8,-3l49 0c12,0 22,1 30,3 9,2 16,5 21,9 6,4 10,9 13,16 4,6 5,13 5,22 0,4 -1,9 -2,13 -1,4 -3,8 -5,11 -2,4 -5,7 -9,10 -3,2 -7,4 -11,6 5,1 11,3 15,5 5,3 9,6 12,10 4,4 7,9 9,14 2,5 3,11 3,18zm-52 -82c0,-4 0,-8 -1,-11 -2,-3 -3,-6 -6,-8 -2,-2 -5,-3 -9,-5 -4,-1 -9,-1 -15,-1l-20 0 0 51 22 0c6,0 11,-1 14,-3 4,-1 6,-3 9,-5 2,-2 4,-5 5,-8 1,-4 1,-7 1,-10zm11 83c0,-4 -1,-8 -3,-12 -1,-3 -3,-6 -6,-9 -3,-2 -7,-4 -11,-5 -5,-2 -11,-2 -18,-2l-24 0 0 55 29 0c6,0 10,0 14,-1 4,-2 7,-3 10,-6 3,-2 5,-5 6,-8 2,-3 3,-7 3,-12zm229 43c2,4 2,6 3,9 0,2 0,3 -2,4 -1,1 -3,2 -5,2 -3,1 -7,1 -12,1 -5,0 -9,0 -12,-1 -3,0 -5,0 -7,0 -1,-1 -2,-2 -3,-2 0,-1 -1,-2 -1,-4l-13 -39 -74 0 -12 38c-1,2 -1,3 -2,4 0,1 -2,2 -3,2 -1,1 -4,1 -6,1 -3,1 -6,1 -11,1 -4,0 -8,-1 -11,-1 -2,0 -4,-1 -5,-2 -1,-1 -1,-3 -1,-5 0,-2 1,-5 2,-8l60 -174c1,-2 2,-3 3,-4 0,-1 2,-2 3,-3 2,0 5,-1 8,-1 3,0 7,0 12,0 6,0 11,0 14,0 4,0 7,1 9,1 2,1 3,2 4,3 1,1 1,3 2,4l60 174zm-89 -144l-1 0 -27 83 55 0 -27 -83zm232 153c0,1 0,2 -1,3 -1,1 -2,1 -3,2 -2,0 -4,1 -6,1 -3,0 -6,1 -10,1 -3,0 -6,-1 -9,-1 -3,0 -5,-1 -6,-1 -2,-1 -3,-1 -4,-2 0,-1 -1,-2 -1,-3l0 -66c-5,0 -10,1 -16,1 -5,0 -10,0 -15,0 -11,0 -21,-1 -30,-2 -8,-2 -16,-6 -22,-11 -7,-4 -12,-11 -15,-19 -4,-8 -6,-19 -6,-32l0 -56c0,-1 1,-2 1,-2 1,-1 2,-2 4,-2 1,-1 3,-1 5,-1 3,-1 6,-1 10,-1 4,0 7,0 9,1 3,0 5,0 7,1 1,0 2,1 3,2 1,0 1,1 1,2l0 52c0,6 1,12 2,16 1,4 3,8 6,11 3,3 7,5 12,7 5,1 11,2 18,2 4,0 9,0 13,-1 5,0 9,0 13,-1l0 -86c0,-1 1,-2 1,-2 1,-1 2,-2 4,-2 1,-1 3,-1 6,-1 3,-1 6,-1 9,-1 4,0 7,0 10,1 2,0 4,0 6,1 1,0 2,1 3,2 1,0 1,1 1,2l0 185zm82 0c0,1 0,2 -1,3 0,1 -1,1 -3,2 -1,0 -4,1 -6,1 -3,0 -6,1 -10,1 -4,0 -7,-1 -9,-1 -3,0 -5,-1 -6,-1 -2,-1 -3,-1 -4,-2 0,-1 -1,-2 -1,-3l0 -185c0,-1 1,-1 1,-2 1,-1 2,-2 4,-2 1,-1 3,-1 6,-1 2,-1 5,-1 9,-1 4,0 7,0 10,1 2,0 5,0 6,1 2,0 3,1 3,2 1,1 1,1 1,2l0 185zm930 -70c0,5 -1,10 -2,12 -1,2 -3,3 -5,3l-63 0c-3,0 -5,-1 -6,-3 -1,-3 -1,-7 -1,-12 0,-6 0,-10 1,-12 1,-3 3,-4 6,-4l63 0c1,0 2,0 3,1 1,0 2,1 2,2 1,2 1,3 1,5 1,2 1,5 1,8zm-658 3c0,12 -1,23 -5,32 -4,9 -9,17 -16,24 -6,7 -15,12 -25,15 -10,3 -22,5 -35,5 -12,0 -23,-1 -33,-4 -10,-4 -18,-8 -25,-14 -6,-7 -12,-14 -15,-24 -4,-9 -5,-20 -5,-33l0 -119c0,-1 0,-1 0,-2 1,-1 2,-2 4,-2 1,-1 3,-1 6,-1 2,-1 6,-1 9,-1 4,0 7,0 10,1 2,0 4,0 6,1 1,0 3,1 3,2 1,1 1,1 1,2l0 116c0,8 1,15 3,20 2,6 5,11 8,14 4,4 8,7 13,9 5,2 11,3 17,3 6,0 12,-1 17,-3 5,-2 9,-5 12,-9 4,-3 6,-8 8,-13 2,-6 3,-12 3,-19l0 -118c0,-1 0,-1 1,-2 0,-1 2,-2 3,-2 2,-1 4,-1 6,-1 3,-1 6,-1 10,-1 4,0 7,0 9,1 3,0 5,0 6,1 2,0 3,1 3,2 1,1 1,1 1,2l0 118zm206 -28c0,18 -3,33 -7,46 -5,13 -12,23 -21,31 -8,8 -19,14 -32,18 -12,4 -27,6 -45,6l-46 0c-4,0 -6,-1 -9,-3 -2,-2 -3,-5 -3,-10l0 -170c0,-5 1,-8 3,-10 3,-2 5,-3 9,-3l50 0c17,0 32,2 44,6 13,4 23,10 31,18 8,8 15,18 19,30 4,12 7,25 7,41zm-42 1c0,-9 -1,-17 -3,-25 -2,-8 -6,-15 -10,-21 -5,-6 -11,-11 -19,-14 -7,-3 -17,-5 -29,-5l-20 0 0 133 20 0c11,0 20,-1 28,-4 7,-3 13,-7 18,-13 5,-6 9,-13 12,-21 2,-9 3,-18 3,-30zm190 84c0,3 0,5 0,7 -1,2 -1,4 -2,5 0,1 -1,2 -1,3 -1,0 -2,1 -3,1l-98 0c-3,0 -6,-1 -8,-3 -3,-2 -4,-5 -4,-10l0 -170c0,-5 1,-8 4,-10 2,-2 5,-3 8,-3l98 0c0,0 1,0 2,1 1,0 1,1 2,2 0,2 1,3 1,5 0,2 0,5 0,8 0,3 0,5 0,7 0,2 -1,4 -1,5 -1,1 -1,2 -2,2 -1,1 -2,1 -2,1l-70 0 0 48 59 0c1,0 1,0 2,1 1,0 1,1 2,2 0,2 1,3 1,5 0,2 0,4 0,7 0,3 0,6 0,7 0,2 -1,4 -1,5 -1,1 -1,2 -2,3 -1,0 -1,0 -2,0l-59 0 0 55 70 0c1,0 2,1 3,1 0,1 1,2 1,3 1,1 1,3 2,5 0,2 0,4 0,7zm196 2c0,2 0,4 -1,6 -1,2 -2,3 -3,5 -1,1 -3,2 -5,2 -2,1 -4,1 -6,1l-16 0c-4,0 -7,0 -10,-1 -2,-1 -5,-2 -7,-4 -2,-2 -4,-4 -6,-7 -2,-4 -4,-8 -7,-13l-48 -91c-3,-6 -6,-12 -9,-18 -3,-6 -6,-12 -8,-18l0 0c0,7 1,14 1,21 0,8 0,15 0,23l0 102c0,1 0,2 -1,3 0,1 -1,1 -3,2 -1,0 -3,1 -5,1 -2,0 -5,1 -9,1 -4,0 -7,-1 -9,-1 -2,0 -4,-1 -5,-1 -2,-1 -3,-1 -3,-2 -1,-1 -1,-2 -1,-3l0 -176c0,-4 2,-8 4,-10 3,-3 6,-4 11,-4l21 0c4,0 7,0 10,1 2,1 5,2 7,3 2,2 4,4 5,7 2,2 4,6 6,9l38 72c2,4 4,9 7,13 2,4 4,8 6,12 2,5 4,9 6,13 2,4 4,8 5,12l0 0c0,-7 0,-15 0,-22 0,-8 0,-15 0,-22l0 -92c0,-1 0,-2 0,-3 1,-1 2,-1 3,-2 2,-1 4,-1 6,-1 2,0 5,-1 9,-1 3,0 6,1 9,1 2,0 4,0 5,1 1,1 2,1 3,2 0,1 0,2 0,3l0 176zm254 -45c0,10 -2,19 -6,27 -4,8 -9,14 -15,19 -7,6 -15,10 -23,12 -9,3 -19,4 -29,4 -6,0 -13,0 -18,-2 -6,-1 -11,-2 -16,-4 -4,-1 -8,-3 -11,-5 -3,-1 -5,-3 -6,-4 -2,-2 -2,-3 -3,-6 -1,-2 -1,-6 -1,-11 0,-3 0,-5 0,-7 1,-3 1,-4 1,-6 1,-1 1,-2 2,-2 1,-1 2,-1 3,-1 1,0 3,1 6,2 2,2 6,4 10,6 4,2 9,4 14,5 6,2 12,3 20,3 5,0 9,-1 13,-2 4,-1 7,-3 10,-5 2,-2 4,-4 6,-7 1,-4 2,-7 2,-11 0,-4 -1,-8 -4,-11 -2,-3 -5,-6 -9,-9 -4,-2 -9,-5 -14,-7 -4,-2 -10,-4 -15,-7 -5,-2 -10,-5 -15,-8 -5,-3 -10,-7 -13,-11 -4,-4 -7,-9 -10,-15 -2,-6 -3,-13 -3,-21 0,-9 1,-18 5,-25 3,-7 8,-13 14,-17 6,-5 13,-9 21,-11 8,-2 16,-3 25,-3 5,0 9,0 14,1 5,0 9,1 13,3 4,1 8,2 11,4 3,1 5,2 6,3 1,1 2,2 2,3 0,1 1,2 1,3 0,1 0,2 0,4 0,2 1,4 1,7 0,3 -1,5 -1,7 0,2 0,4 0,5 -1,1 -1,2 -2,3 -1,1 -2,1 -3,1 -1,0 -2,-1 -5,-2 -2,-2 -5,-3 -9,-5 -3,-2 -7,-3 -12,-4 -5,-2 -10,-2 -15,-2 -5,0 -8,0 -12,1 -3,1 -6,3 -8,5 -2,1 -4,4 -5,6 -1,3 -1,6 -1,9 0,4 1,8 3,11 3,3 6,6 10,8 4,3 8,5 13,7 5,2 11,5 16,7 5,3 10,5 15,8 5,3 10,7 14,11 4,5 7,10 9,16 3,5 4,12 4,20z"/>
  <path class="fil0" d="M25128 115c0,12 -1,21 -5,30 -3,8 -8,15 -15,21 -6,6 -14,10 -24,13 -9,3 -21,5 -34,5l-16 0 0 62c0,1 0,2 -1,3 -1,1 -2,1 -3,2 -2,1 -4,1 -6,1 -3,0 -6,1 -10,1 -4,0 -7,-1 -9,-1 -3,0 -5,-1 -7,-1 -1,-1 -2,-1 -3,-2 0,-1 -1,-2 -1,-3l0 -176c0,-4 2,-8 4,-10 3,-3 6,-4 10,-4l46 0c5,0 9,0 13,1 4,0 9,1 15,2 6,1 12,3 18,6 6,3 11,7 15,12 5,5 8,11 10,17 2,6 3,14 3,21zm-41 3c0,-6 -1,-12 -4,-17 -2,-4 -5,-7 -9,-9 -3,-3 -7,-4 -11,-4 -4,-1 -8,-1 -12,-1l-17 0 0 66 18 0c6,0 12,-1 16,-2 4,-2 8,-4 11,-8 2,-3 4,-6 6,-11 1,-4 2,-9 2,-14zm163 80c-4,11 -8,20 -13,28 -4,7 -9,13 -13,17 -5,4 -11,7 -16,9 -6,2 -13,2 -20,2 -3,0 -6,0 -8,0 -3,0 -5,-1 -8,-1 -2,-1 -4,-2 -6,-3 -1,0 -3,-1 -3,-2 -1,-1 -2,-1 -2,-2 -1,-1 -1,-2 -1,-4 -1,-1 -1,-3 -1,-5 0,-2 0,-5 0,-8 0,-6 0,-10 1,-13 1,-2 2,-3 4,-3 1,0 2,0 3,1 1,0 2,1 4,2 2,1 3,2 5,2 2,1 5,1 8,1 2,0 4,0 6,0 1,-1 3,-2 5,-3 1,-1 3,-3 4,-6 2,-2 4,-5 6,-9l-65 -131c-1,-3 -2,-6 -2,-8 0,-2 0,-3 1,-4 1,-1 4,-2 6,-2 3,-1 7,-1 12,-1 5,0 8,0 11,0 3,1 5,1 7,2 2,0 3,1 4,3 1,1 2,2 3,5l27 59c3,6 6,12 9,19 2,6 5,12 8,19l0 0c2,-7 4,-13 6,-20 3,-6 5,-13 8,-20l23 -60c0,-2 1,-3 2,-4 0,-1 2,-1 3,-2 2,0 4,-1 7,-1 3,0 6,0 11,0 4,0 8,0 11,1 3,0 4,0 6,1 1,1 1,2 1,4 0,1 0,3 -1,6l-53 131zm206 49c0,1 -1,1 -1,2 -1,1 -2,2 -4,2 -1,1 -3,1 -6,1 -2,1 -5,1 -9,1 -4,0 -7,0 -10,-1 -2,0 -5,0 -6,-1 -2,0 -3,-1 -3,-2 -1,-1 -1,-1 -1,-2l0 -158 -42 0c-3,23 -6,43 -9,60 -2,17 -6,32 -9,44 -3,13 -7,23 -11,31 -4,8 -9,14 -14,18 -5,5 -10,8 -17,10 -6,2 -14,2 -22,2 -1,0 -3,0 -4,0 -1,0 -2,-1 -2,-2 -1,-1 -2,-3 -2,-5 0,-2 0,-5 0,-8 0,-4 0,-8 0,-10 0,-3 1,-5 1,-6 1,-2 1,-3 2,-3 1,-1 2,-1 3,-1 3,0 6,-1 9,-2 3,-1 6,-4 8,-7 3,-4 6,-9 8,-16 2,-7 5,-16 7,-27 3,-11 5,-24 7,-40 3,-16 5,-35 8,-57 0,-5 1,-9 3,-11 2,-2 5,-3 8,-3l96 0c4,0 7,1 9,3 2,2 3,5 3,10l0 178zm218 -95c0,16 -2,30 -6,43 -4,13 -10,24 -18,33 -8,9 -18,15 -30,20 -11,5 -25,7 -40,7 -16,0 -29,-2 -40,-6 -11,-4 -21,-10 -28,-18 -8,-8 -14,-19 -17,-31 -4,-13 -6,-28 -6,-45 0,-16 2,-30 6,-43 4,-12 10,-23 18,-32 8,-9 18,-16 29,-20 12,-5 26,-7 41,-7 15,0 28,2 40,6 11,3 20,9 28,18 8,8 13,18 17,31 4,12 6,27 6,44zm-42 2c0,-11 -1,-20 -2,-28 -2,-9 -5,-16 -8,-22 -4,-6 -9,-11 -16,-14 -6,-3 -14,-5 -24,-5 -10,0 -18,2 -24,6 -7,3 -12,8 -16,14 -4,7 -7,14 -9,22 -1,8 -2,17 -2,26 0,11 1,20 2,29 2,8 4,16 8,22 4,6 9,10 16,14 6,3 14,4 24,4 10,0 18,-2 24,-5 7,-4 12,-9 16,-15 4,-6 7,-14 9,-22 1,-8 2,-17 2,-26zm228 92c0,1 0,2 -1,3 0,1 -2,1 -3,2 -2,0 -4,1 -6,1 -3,0 -6,1 -10,1 -3,0 -7,-1 -9,-1 -3,0 -5,-1 -6,-1 -2,-1 -3,-1 -3,-2 -1,-1 -1,-2 -1,-3l0 -79 -74 0 0 79c0,1 0,2 -1,3 0,1 -1,1 -3,2 -1,0 -3,1 -6,1 -2,0 -6,1 -10,1 -3,0 -7,-1 -9,-1 -3,0 -5,-1 -6,-1 -2,-1 -3,-1 -3,-2 -1,-1 -1,-2 -1,-3l0 -185c0,-1 0,-1 1,-2 0,-1 1,-2 3,-2 1,-1 3,-1 6,-1 2,-1 6,-1 9,-1 4,0 8,0 10,1 3,0 5,0 6,1 2,0 3,1 3,2 1,1 1,1 1,2l0 72 74 0 0 -72c0,-1 0,-1 1,-2 0,-1 1,-2 3,-2 1,-1 3,-1 6,-1 2,-1 6,-1 9,-1 4,0 7,0 10,1 2,0 4,0 6,1 1,0 3,1 3,2 1,1 1,1 1,2l0 185zm195 0c0,1 0,2 0,3 -1,1 -2,1 -4,2 -1,0 -3,1 -6,1 -2,0 -5,1 -9,1 -4,0 -7,-1 -10,-1 -3,0 -5,-1 -6,-1 -1,-1 -2,-1 -3,-2 -1,-1 -1,-2 -1,-3l0 -79 -74 0 0 79c0,1 0,2 0,3 -1,1 -2,1 -4,2 -1,0 -3,1 -6,1 -2,0 -5,1 -9,1 -4,0 -7,-1 -10,-1 -2,0 -4,-1 -6,-1 -1,-1 -2,-1 -3,-2 -1,-1 -1,-2 -1,-3l0 -185c0,-1 0,-1 1,-2 1,-1 2,-2 3,-2 2,-1 4,-1 6,-1 3,-1 6,-1 10,-1 4,0 7,0 9,1 3,0 5,0 6,1 2,0 3,1 4,2 0,1 0,1 0,2l0 72 74 0 0 -72c0,-1 0,-1 1,-2 1,-1 2,-2 3,-2 1,-1 3,-1 6,-1 3,-1 6,-1 10,-1 4,0 7,0 9,1 3,0 5,0 6,1 2,0 3,1 4,2 0,1 0,1 0,2l0 185zm83 0c0,1 0,2 -1,3 -1,1 -2,1 -3,2 -2,0 -4,1 -6,1 -3,0 -6,1 -10,1 -4,0 -7,-1 -9,-1 -3,0 -5,-1 -7,-1 -1,-1 -2,-1 -3,-2 -1,-1 -1,-2 -1,-3l0 -185c0,-1 0,-1 1,-2 1,-1 2,-2 4,-2 1,-1 3,-1 6,-1 2,-1 5,-1 9,-1 4,0 7,0 10,1 2,0 4,0 6,1 1,0 2,1 3,2 1,1 1,1 1,2l0 185zm348 -7c0,4 -1,8 -3,10 -2,2 -5,3 -9,3l-212 0c-3,0 -6,-1 -8,-3 -2,-2 -3,-6 -3,-10l0 -178c0,-1 0,-2 1,-3 0,0 1,-1 3,-1 1,-1 3,-1 6,-2 3,0 6,0 9,0 4,0 7,0 9,0 3,1 5,1 6,2 2,0 3,1 4,1 0,1 1,2 1,3l0 158 59 0 0 -158c0,-1 0,-2 1,-3 0,0 2,-1 3,-1 1,-1 3,-1 6,-2 2,0 6,0 9,0 4,0 7,0 9,0 3,1 5,1 6,2 2,0 3,1 4,1 0,1 1,2 1,3l0 158 59 0 0 -158c0,-1 0,-2 1,-3 0,0 1,-1 3,-1 1,-1 3,-1 6,-2 2,0 5,0 9,0 4,0 7,0 9,0 3,1 5,1 6,2 2,0 3,1 4,1 0,1 1,2 1,3l0 178zm172 -167c0,3 0,6 0,8 0,2 -1,4 -1,5 -1,1 -1,2 -2,3 -1,0 -2,1 -2,1l-49 0 0 157c0,1 -1,2 -1,3 -1,1 -2,1 -4,2 -1,0 -3,1 -6,1 -2,0 -6,1 -9,1 -4,0 -7,-1 -10,-1 -3,0 -5,-1 -6,-1 -2,-1 -3,-1 -3,-2 -1,-1 -1,-2 -1,-3l0 -157 -49 0c-1,0 -2,-1 -3,-1 0,-1 -1,-2 -2,-3 0,-1 0,-3 -1,-5 0,-2 0,-5 0,-8 0,-3 0,-5 0,-7 1,-2 1,-4 1,-5 1,-2 2,-3 2,-3 1,-1 2,-1 3,-1l138 0c0,0 1,0 2,1 1,0 1,1 2,3 0,1 1,3 1,5 0,2 0,4 0,7zm193 80c0,16 -2,30 -6,43 -4,13 -10,24 -18,33 -8,9 -18,15 -30,20 -12,5 -25,7 -41,7 -15,0 -28,-2 -40,-6 -11,-4 -20,-10 -28,-18 -7,-8 -13,-19 -17,-31 -4,-13 -6,-28 -6,-45 0,-16 2,-30 6,-43 5,-12 11,-23 18,-32 8,-9 18,-16 30,-20 12,-5 25,-7 41,-7 15,0 28,2 39,6 11,3 21,9 29,18 7,8 13,18 17,31 4,12 6,27 6,44zm-42 2c0,-11 -1,-20 -3,-28 -1,-9 -4,-16 -8,-22 -4,-6 -9,-11 -15,-14 -7,-3 -15,-5 -24,-5 -10,0 -18,2 -25,6 -6,3 -12,8 -16,14 -4,7 -7,14 -8,22 -2,8 -3,17 -3,26 0,11 1,20 3,29 1,8 4,16 8,22 4,6 9,10 15,14 7,3 15,4 25,4 9,0 17,-2 24,-5 6,-4 12,-9 16,-15 4,-6 7,-14 8,-22 2,-8 3,-17 3,-26zm209 -39c0,12 -2,21 -5,30 -3,8 -8,15 -15,21 -7,6 -15,10 -24,13 -10,3 -21,5 -34,5l-16 0 0 62c0,1 -1,2 -1,3 -1,1 -2,1 -3,2 -2,1 -4,1 -7,1 -2,0 -5,1 -9,1 -4,0 -7,-1 -10,-1 -2,0 -4,-1 -6,-1 -1,-1 -2,-1 -3,-2 -1,-1 -1,-2 -1,-3l0 -176c0,-4 1,-8 4,-10 2,-3 6,-4 10,-4l46 0c4,0 9,0 13,1 4,0 9,1 15,2 6,1 12,3 18,6 6,3 11,7 15,12 4,5 8,11 10,17 2,6 3,14 3,21zm-41 3c0,-6 -2,-12 -4,-17 -2,-4 -5,-7 -9,-9 -3,-3 -7,-4 -11,-4 -4,-1 -8,-1 -12,-1l-17 0 0 66 18 0c6,0 11,-1 16,-2 4,-2 8,-4 10,-8 3,-3 5,-6 7,-11 1,-4 2,-9 2,-14zm231 129c0,1 0,1 -1,2 -1,1 -2,2 -3,2 -2,1 -4,1 -6,1 -3,1 -6,1 -10,1 -4,0 -7,0 -10,-1 -2,0 -4,0 -6,-1 -1,0 -2,-1 -3,-2 0,-1 -1,-1 -1,-2l0 -104c0,-3 0,-7 1,-11 0,-4 0,-7 0,-10l0 0c-1,1 -2,3 -3,5 -1,2 -3,4 -4,6 -1,2 -2,4 -4,6 -1,2 -3,4 -4,6l-68 102c-1,1 -2,2 -2,3 -1,0 -2,1 -4,2 -1,0 -3,0 -5,0 -2,1 -4,1 -7,1 -4,0 -8,0 -10,-1 -2,0 -4,0 -6,-1 -1,0 -2,-1 -2,-2 -1,-1 -1,-2 -1,-3l0 -185c0,-1 0,-2 1,-2 1,-1 2,-2 3,-2 2,-1 4,-1 6,-2 3,0 6,0 10,0 4,0 7,0 9,0 3,1 5,1 6,2 2,0 3,1 4,2 0,0 1,1 1,2l0 104c0,3 -1,7 -1,10 0,4 0,7 0,11l0 0c2,-3 4,-7 7,-11 2,-4 5,-8 8,-13l68 -101c1,-1 1,-2 2,-3 1,0 2,-1 3,-2 2,0 4,0 6,-1 2,0 4,0 7,0 4,0 7,0 10,0 2,1 4,1 5,2 2,0 3,1 3,2 1,0 1,1 1,2l0 186z"/>
  <g id="_830183408">
   <path class="fil0" d="M10833 222c0,1 0,2 0,3 -1,1 -2,1 -3,2 -2,0 -4,1 -6,1 -3,0 -6,0 -9,0 -4,0 -7,0 -10,0 -2,0 -4,-1 -5,-1 -2,-1 -3,-1 -3,-2 -1,-1 -1,-2 -1,-3l0 -159 -1 0 -56 159c-1,1 -1,2 -2,3 -1,1 -2,2 -4,2 -1,1 -3,1 -6,1 -2,0 -5,0 -9,0 -3,0 -6,0 -8,0 -3,0 -5,-1 -6,-1 -2,-1 -3,-1 -4,-2 -1,-1 -1,-2 -2,-3l-54 -159 -1 0 0 159c0,1 0,2 0,3 -1,1 -2,1 -4,2 -1,0 -3,1 -5,1 -3,0 -6,0 -10,0 -3,0 -6,0 -9,0 -2,0 -4,-1 -6,-1 -1,-1 -2,-1 -3,-2 0,-1 0,-2 0,-3l0 -174c0,-5 1,-9 4,-12 2,-3 6,-4 11,-4l26 0c4,0 8,0 12,1 3,1 6,2 8,4 3,2 5,4 6,7 2,3 3,6 5,10l42 117 0 0 44 -116c1,-5 3,-8 4,-11 2,-3 4,-5 6,-7 2,-2 4,-3 7,-4 3,-1 6,-1 10,-1l27 0c2,0 5,0 7,1 2,1 3,2 5,3 1,1 2,3 2,5 1,2 1,4 1,7l0 174zm159 -10c0,3 0,5 0,7 -1,2 -1,4 -2,5 0,1 -1,2 -1,3 -1,0 -2,1 -3,1l-98 0c-3,0 -6,-1 -8,-3 -3,-2 -4,-6 -4,-10l0 -171c0,-4 1,-7 4,-9 2,-2 5,-3 8,-3l98 0c0,0 1,0 2,1 1,0 1,1 2,2 0,2 1,3 1,5 0,2 0,5 0,8 0,3 0,5 0,7 0,2 -1,3 -1,5 -1,1 -1,2 -2,2 -1,1 -2,1 -2,1l-70 0 0 48 59 0c1,0 1,0 2,1 1,0 1,1 2,2 1,1 1,3 1,5 0,2 1,4 1,7 0,3 -1,5 -1,7 0,2 0,4 -1,5 -1,1 -1,2 -2,2 -1,1 -1,1 -2,1l-59 0 0 55 70 0c1,0 2,1 3,1 0,1 1,2 1,3 1,1 1,3 2,5 0,2 0,4 0,7zm164 -164c0,3 0,6 0,8 0,2 -1,3 -1,5 -1,1 -1,2 -2,2 -1,1 -2,1 -3,1l-49 0 0 158c0,1 0,2 -1,3 0,1 -1,1 -3,2 -1,0 -3,1 -6,1 -3,0 -6,0 -10,0 -3,0 -7,0 -9,0 -3,0 -5,-1 -6,-1 -2,-1 -3,-1 -4,-2 0,-1 -1,-2 -1,-3l0 -158 -48 0c-1,0 -2,0 -3,-1 -1,0 -1,-1 -2,-2 0,-2 -1,-3 -1,-5 0,-2 0,-5 0,-8 0,-3 0,-5 0,-7 0,-3 1,-4 1,-6 1,-1 1,-2 2,-2 1,-1 2,-1 3,-1l137 0c1,0 2,0 3,1 1,0 1,1 2,2 0,2 1,3 1,6 0,2 0,4 0,7zm163 165c1,3 2,6 2,8 0,2 0,4 -1,5 -1,1 -3,2 -6,2 -3,0 -7,0 -12,0 -5,0 -9,0 -12,0 -3,0 -5,0 -6,-1 -2,0 -3,-1 -4,-2 0,0 -1,-1 -1,-3l-13 -39 -74 0 -12 38c0,2 -1,3 -2,4 0,1 -1,1 -3,2 -1,1 -3,1 -6,1 -3,0 -6,0 -11,0 -4,0 -8,0 -10,0 -3,0 -5,-1 -6,-2 -1,-1 -1,-3 -1,-5 0,-2 1,-5 2,-9l61 -173c0,-2 1,-3 2,-4 1,-1 2,-2 4,-3 1,0 4,-1 7,-1 3,0 7,0 12,0 6,0 11,0 15,0 3,0 6,1 8,1 2,1 3,2 4,3 1,1 2,2 2,4l61 174zm-90 -144l0 0 -28 83 55 0 -27 -83zm269 153c0,1 0,2 -1,3 0,1 -2,1 -3,2 -2,0 -4,1 -6,1 -3,0 -6,0 -10,0 -4,0 -7,0 -9,0 -3,0 -5,-1 -7,-1 -1,-1 -2,-1 -3,-2 0,-1 -1,-2 -1,-3l0 -158 -41 0c-3,24 -6,44 -9,61 -3,17 -6,32 -9,44 -4,13 -7,23 -11,31 -4,7 -9,14 -14,18 -5,5 -11,8 -17,10 -7,1 -14,2 -22,2 -2,0 -3,0 -4,0 -1,-1 -2,-1 -3,-3 -1,-1 -1,-2 -1,-4 -1,-2 -1,-5 -1,-8 0,-4 0,-8 1,-10 0,-3 0,-5 1,-7 0,-1 1,-2 2,-2 0,-1 1,-1 2,-1 4,0 7,-1 9,-2 3,-1 6,-4 9,-8 2,-3 5,-9 8,-15 2,-7 4,-16 7,-27 2,-11 5,-25 7,-41 2,-15 5,-34 7,-56 1,-5 2,-9 4,-11 2,-2 4,-3 8,-3l96 0c3,0 6,1 8,3 2,2 3,5 3,9l0 178zm159 -10c0,3 -1,5 -1,7 0,2 0,4 -1,5 0,1 -1,2 -2,3 -1,0 -1,1 -2,1l-99 0c-3,0 -6,-1 -8,-3 -2,-2 -3,-6 -3,-10l0 -171c0,-4 1,-7 3,-9 2,-2 5,-3 8,-3l98 0c1,0 2,0 3,1 0,0 1,1 1,2 1,2 1,3 2,5 0,2 0,5 0,8 0,3 0,5 0,7 -1,2 -1,3 -2,5 0,1 -1,2 -1,2 -1,1 -2,1 -3,1l-70 0 0 48 59 0c1,0 2,0 3,1 0,0 1,1 2,2 0,1 0,3 1,5 0,2 0,4 0,7 0,3 0,5 0,7 -1,2 -1,4 -1,5 -1,1 -2,2 -2,2 -1,1 -2,1 -3,1l-59 0 0 55 71 0c1,0 1,1 2,1 1,1 2,2 2,3 1,1 1,3 1,5 0,2 1,4 1,7zm176 -43c0,7 -1,13 -3,19 -2,5 -4,10 -8,15 -3,4 -7,8 -12,11 -4,3 -9,6 -15,8 -6,2 -12,3 -18,4 -7,1 -14,2 -22,2l-51 0c-4,0 -7,-1 -9,-3 -2,-2 -3,-6 -3,-10l0 -171c0,-4 1,-7 3,-9 2,-2 5,-3 9,-3l49 0c12,0 22,1 30,3 8,2 15,5 21,9 6,4 10,9 13,16 3,6 4,13 4,22 0,4 0,9 -1,13 -2,4 -3,8 -6,11 -2,4 -5,7 -8,9 -4,3 -7,5 -12,7 6,1 11,3 16,5 4,3 8,6 12,10 3,4 6,9 8,14 2,5 3,11 3,18zm-51 -83c0,-4 -1,-7 -2,-10 -1,-3 -3,-6 -5,-8 -3,-2 -6,-4 -10,-5 -3,-1 -8,-1 -14,-1l-20 0 0 50 22 0c6,0 10,0 14,-2 3,-1 6,-3 8,-5 2,-3 4,-5 5,-9 1,-3 2,-6 2,-10zm10 84c0,-4 -1,-8 -2,-12 -2,-4 -4,-7 -7,-9 -3,-2 -6,-4 -11,-6 -5,-1 -10,-2 -18,-2l-23 0 0 56 28 0c6,0 11,0 14,-2 4,-1 7,-2 10,-5 3,-2 5,-5 7,-8 1,-4 2,-7 2,-12zm113 52c0,1 0,2 -1,3 0,1 -2,1 -3,2 -2,0 -4,1 -6,1 -3,0 -6,0 -10,0 -4,0 -7,0 -9,0 -3,0 -5,-1 -6,-1 -2,-1 -3,-1 -4,-2 0,-1 -1,-2 -1,-3l0 -185c0,-1 1,-2 1,-2 1,-1 2,-2 4,-2 1,-1 3,-1 6,-2 2,0 5,0 9,0 4,0 7,0 10,0 2,1 4,1 6,2 1,0 3,1 3,2 1,0 1,1 1,2l0 185zm293 52c0,1 0,1 0,2 -1,1 -2,1 -3,2 -1,0 -3,1 -5,1 -3,0 -6,0 -9,0 -3,0 -6,0 -8,0 -3,0 -4,-1 -6,-1 -1,-1 -2,-1 -3,-2 0,-1 0,-1 0,-2l0 -46 -131 0 0 46c0,1 0,1 -1,2 0,1 -1,1 -2,2 -2,0 -4,1 -6,1 -2,0 -5,0 -8,0 -4,0 -7,0 -9,0 -2,0 -4,-1 -5,-1 -1,-1 -2,-1 -3,-2 0,-1 -1,-1 -1,-2l0 -71c0,-3 1,-5 2,-6 1,-1 3,-2 6,-2l9 0c2,-3 4,-7 7,-11 2,-3 4,-7 6,-12 2,-5 4,-11 6,-18 2,-7 4,-16 6,-26 2,-10 3,-21 5,-35 2,-14 4,-30 7,-48 0,-5 1,-8 3,-10 2,-2 4,-3 8,-3l100 0c3,0 6,1 8,3 2,2 3,5 3,9l0 151 17 0c3,0 5,1 6,2 1,2 1,4 1,6l0 71zm-63 -210l-46 0c-2,15 -4,29 -5,40 -2,12 -4,22 -6,31 -2,9 -3,16 -5,23 -2,6 -4,11 -6,16 -2,5 -4,9 -6,12 -2,3 -4,6 -6,9l80 0 0 -131zm233 105c0,7 -1,13 -3,19 -2,5 -5,10 -8,15 -4,4 -8,8 -12,11 -5,3 -10,6 -16,8 -5,2 -11,3 -18,4 -6,1 -13,2 -21,2l-52 0c-3,0 -6,-1 -8,-3 -3,-2 -4,-6 -4,-10l0 -171c0,-4 1,-7 4,-9 2,-2 5,-3 8,-3l49 0c12,0 22,1 30,3 9,2 16,5 21,9 6,4 10,9 13,16 3,6 5,13 5,22 0,4 -1,9 -2,13 -1,4 -3,8 -5,11 -3,4 -5,7 -9,9 -3,3 -7,5 -11,7 5,1 10,3 15,5 5,3 9,6 12,10 4,4 7,9 9,14 2,5 3,11 3,18zm-52 -83c0,-4 0,-7 -2,-10 -1,-3 -3,-6 -5,-8 -2,-2 -5,-4 -9,-5 -4,-1 -9,-1 -15,-1l-20 0 0 50 22 0c6,0 11,0 14,-2 3,-1 6,-3 9,-5 2,-3 3,-5 5,-9 1,-3 1,-6 1,-10zm10 84c0,-4 0,-8 -2,-12 -1,-4 -4,-7 -6,-9 -3,-2 -7,-4 -12,-6 -4,-1 -10,-2 -17,-2l-24 0 0 56 29 0c5,0 10,0 14,-2 4,-1 7,-2 10,-5 2,-2 5,-5 6,-8 2,-4 2,-7 2,-12zm189 42c0,3 0,5 0,7 0,2 -1,4 -1,5 -1,1 -1,2 -2,3 -1,0 -2,1 -2,1l-99 0c-3,0 -6,-1 -8,-3 -2,-2 -3,-6 -3,-10l0 -171c0,-4 1,-7 3,-9 2,-2 5,-3 8,-3l98 0c1,0 2,0 3,1 0,0 1,1 1,2 1,2 1,3 1,5 1,2 1,5 1,8 0,3 0,5 -1,7 0,2 0,3 -1,5 0,1 -1,2 -1,2 -1,1 -2,1 -3,1l-70 0 0 48 59 0c1,0 2,0 3,1 0,0 1,1 1,2 1,1 1,3 2,5 0,2 0,4 0,7 0,3 0,5 0,7 -1,2 -1,4 -2,5 0,1 -1,2 -1,2 -1,1 -2,1 -3,1l-59 0 0 55 71 0c0,0 1,1 2,1 1,1 1,2 2,3 0,1 1,3 1,5 0,2 0,4 0,7zm170 -121c0,11 -2,21 -5,30 -4,8 -9,15 -15,21 -7,6 -15,10 -25,13 -9,3 -20,5 -33,5l-17 0 0 62c0,1 0,2 -1,3 0,1 -1,1 -3,2 -1,0 -3,1 -6,1 -2,0 -6,0 -10,0 -3,0 -7,0 -9,0 -3,0 -5,-1 -6,-1 -2,-1 -3,-1 -3,-2 -1,-1 -1,-2 -1,-3l0 -176c0,-5 1,-8 3,-11 3,-2 6,-3 10,-3l46 0c5,0 9,0 14,0 4,1 9,2 15,3 5,1 11,3 17,6 6,3 11,7 16,12 4,5 7,10 9,17 3,6 4,13 4,21zm-42 3c0,-7 -1,-12 -3,-17 -3,-4 -6,-7 -9,-10 -4,-2 -8,-3 -12,-4 -3,0 -7,0 -12,0l-17 0 0 66 18 0c7,0 12,-1 16,-2 5,-2 8,-5 11,-8 3,-3 5,-6 6,-11 2,-4 2,-9 2,-14zm112 128c0,1 0,2 -1,3 0,1 -1,1 -3,2 -1,0 -3,1 -6,1 -2,0 -6,0 -10,0 -3,0 -7,0 -9,0 -3,0 -5,-1 -6,-1 -2,-1 -3,-1 -4,-2 0,-1 -1,-2 -1,-3l0 -185c0,-1 1,-2 1,-2 1,-1 2,-2 4,-2 1,-1 3,-1 6,-2 2,0 6,0 9,0 4,0 8,0 10,0 3,1 5,1 6,2 2,0 3,1 3,2 1,0 1,1 1,2l0 185zm206 -48c-5,11 -9,20 -13,27 -4,8 -9,14 -14,18 -5,4 -10,7 -16,9 -6,2 -12,2 -20,2 -2,0 -5,0 -8,0 -2,-1 -5,-1 -7,-2 -2,0 -4,-1 -6,-2 -2,-1 -3,-1 -4,-2 -1,-1 -1,-2 -2,-2 0,-1 -1,-2 -1,-4 0,-1 0,-3 -1,-5 0,-2 0,-5 0,-8 0,-6 1,-10 1,-13 1,-2 3,-3 4,-3 1,0 2,0 3,1 2,0 3,1 4,2 2,1 4,1 6,2 2,1 4,1 7,1 2,0 4,0 6,-1 2,0 4,-1 5,-2 2,-2 3,-3 5,-6 2,-2 3,-5 5,-9l-64 -131c-2,-3 -2,-6 -3,-8 0,-2 1,-3 2,-4 1,-1 3,-2 6,-3 3,0 7,0 11,0 5,0 9,0 12,0 3,0 5,1 7,2 1,0 3,1 4,2 0,2 1,3 2,5l28 60c3,6 6,12 8,19 3,6 6,12 8,19l1 0c2,-7 4,-14 6,-20 2,-6 5,-13 7,-20l23 -60c1,-2 1,-3 2,-4 1,-1 2,-1 4,-2 1,0 3,-1 6,-1 3,0 7,0 11,0 5,0 9,0 11,0 3,1 5,1 6,2 1,1 2,2 2,4 0,1 -1,3 -2,6l-52 131zm358 -7c0,9 -1,17 -4,24 -3,8 -8,14 -14,19 -6,6 -14,10 -23,13 -10,3 -22,5 -37,5l-51 0c-4,0 -7,-1 -9,-3 -3,-2 -4,-6 -4,-10l0 -171c0,-4 1,-7 4,-9 2,-2 5,-3 8,-3l111 0c1,0 2,0 3,1 0,0 1,1 2,2 0,2 1,3 1,5 0,2 0,5 0,8 0,2 0,5 0,7 0,2 -1,3 -1,5 -1,1 -2,2 -2,2 -1,1 -2,1 -3,1l-83 0 0 49 33 0c12,0 23,1 31,3 8,3 15,6 21,11 5,5 10,11 13,18 3,6 4,14 4,23zm-40 2c0,-4 -1,-8 -2,-11 -2,-4 -4,-7 -6,-9 -3,-3 -7,-5 -11,-6 -4,-1 -10,-2 -17,-2l-26 0 0 57 26 0c7,0 12,-1 16,-2 4,-2 8,-3 11,-6 3,-2 5,-5 6,-9 2,-3 3,-7 3,-12zm160 5c-5,11 -9,20 -13,27 -4,8 -9,14 -14,18 -5,4 -10,7 -16,9 -6,2 -12,2 -20,2 -2,0 -5,0 -8,0 -2,-1 -5,-1 -7,-2 -2,0 -4,-1 -6,-2 -2,-1 -3,-1 -4,-2 -1,-1 -1,-2 -2,-2 0,-1 -1,-2 -1,-4 0,-1 0,-3 -1,-5 0,-2 0,-5 0,-8 0,-6 1,-10 1,-13 1,-2 3,-3 4,-3 1,0 2,0 3,1 2,0 3,1 4,2 2,1 4,1 6,2 2,1 4,1 7,1 2,0 4,0 6,-1 2,0 4,-1 5,-2 2,-2 3,-3 5,-6 2,-2 3,-5 5,-9l-64 -131c-2,-3 -2,-6 -3,-8 0,-2 0,-3 2,-4 1,-1 3,-2 6,-3 3,0 7,0 11,0 5,0 9,0 12,0 3,0 5,1 7,2 1,0 3,1 3,2 1,2 2,3 3,5l28 60c3,6 6,12 8,19 3,6 6,12 8,19l0 0c3,-7 5,-14 7,-20 2,-6 5,-13 7,-20l23 -60c1,-2 1,-3 2,-4 1,-1 2,-1 4,-2 1,0 3,-1 6,-1 3,0 7,0 11,0 5,0 9,0 11,0 3,1 5,1 6,2 1,1 2,2 2,4 0,1 -1,3 -2,6l-52 131z"/>
   <path class="fil0" d="M13673 274c0,1 0,1 -1,2 0,1 -1,1 -3,2 -1,0 -3,1 -5,1 -2,0 -5,0 -8,0 -4,0 -7,0 -9,0 -2,0 -4,-1 -5,-1 -1,-1 -2,-1 -3,-2 -1,-1 -1,-1 -1,-2l0 -46 -130 0 0 46c0,1 0,1 -1,2 -1,1 -1,1 -3,2 -1,0 -3,1 -5,1 -2,0 -5,0 -9,0 -3,0 -6,0 -8,0 -2,0 -4,-1 -6,-1 -1,-1 -2,-1 -2,-2 -1,-1 -1,-1 -1,-2l0 -71c0,-3 0,-5 2,-6 1,-1 3,-2 5,-2l9 0c3,-3 5,-7 7,-11 2,-3 4,-7 6,-12 2,-5 4,-11 6,-18 2,-7 4,-16 6,-26 2,-10 4,-21 6,-35 2,-14 4,-30 6,-48 1,-5 2,-8 4,-10 1,-2 4,-3 8,-3l99 0c4,0 7,1 9,3 2,2 3,5 3,9l0 151 16 0c3,0 5,1 6,2 1,2 2,4 2,6l0 71zm-64 -210l-45 0c-2,15 -4,29 -6,40 -2,12 -3,22 -5,31 -2,9 -4,16 -6,23 -1,6 -3,11 -5,16 -2,5 -4,9 -6,12 -2,3 -4,6 -6,9l79 0 0 -131zm251 158c0,1 0,2 -1,3 -1,1 -2,1 -3,2 -2,0 -4,1 -7,1 -2,0 -5,0 -9,0 -4,0 -7,0 -10,0 -2,0 -4,-1 -6,-1 -1,-1 -2,-1 -3,-2 0,-1 -1,-2 -1,-3l0 -103c0,-4 0,-7 0,-11 0,-4 1,-7 1,-10l0 0c-1,1 -2,3 -3,5 -2,1 -3,3 -4,5 -1,3 -3,5 -4,7 -1,2 -3,4 -4,6l-68 102c-1,1 -2,2 -3,2 0,1 -2,2 -3,2 -1,1 -3,1 -5,1 -2,0 -4,0 -8,0 -3,0 -7,0 -9,0 -2,0 -4,-1 -6,-1 -1,-1 -2,-1 -3,-2 0,-1 0,-2 0,-3l0 -185c0,-1 0,-2 1,-3 0,0 1,-1 3,-2 2,0 4,0 6,-1 3,0 6,0 10,0 3,0 7,0 9,0 3,1 5,1 6,1 2,1 3,2 3,2 1,1 1,2 1,3l0 104c0,3 0,6 0,10 0,4 0,7 0,11l0 0c2,-3 4,-7 7,-11 2,-5 5,-9 8,-13l68 -101c1,-1 1,-2 2,-3 1,-1 2,-1 3,-2 2,0 3,-1 5,-1 2,0 5,0 8,0 4,0 7,0 9,0 3,1 5,1 6,1 1,1 2,2 3,2 1,1 1,2 1,3l0 185zm195 0c0,1 0,2 -1,3 0,1 -2,1 -3,2 -2,0 -4,1 -6,1 -3,0 -6,0 -10,0 -3,0 -7,0 -9,0 -3,0 -5,-1 -6,-1 -2,-1 -3,-1 -3,-2 -1,-1 -1,-2 -1,-3l0 -79 -74 0 0 79c0,1 0,2 -1,3 0,1 -1,1 -3,2 -1,0 -3,1 -6,1 -2,0 -6,0 -10,0 -3,0 -7,0 -9,0 -3,0 -5,-1 -6,-1 -2,-1 -3,-1 -4,-2 0,-1 0,-2 0,-3l0 -185c0,-1 0,-2 0,-2 1,-1 2,-2 4,-2 1,-1 3,-1 6,-2 2,0 6,0 9,0 4,0 8,0 10,0 3,1 5,1 6,2 2,0 3,1 3,2 1,0 1,1 1,2l0 72 74 0 0 -72c0,-1 0,-2 1,-2 0,-1 1,-2 3,-2 1,-1 3,-1 6,-2 2,0 6,0 9,0 4,0 7,0 10,0 2,1 4,1 6,2 1,0 3,1 3,2 1,0 1,1 1,2l0 185zm219 -95c0,17 -2,31 -6,44 -4,13 -10,24 -18,33 -8,8 -18,15 -30,20 -12,5 -25,7 -41,7 -15,0 -28,-2 -39,-6 -12,-4 -21,-10 -29,-18 -7,-8 -13,-19 -17,-31 -4,-13 -5,-28 -5,-45 0,-16 2,-30 6,-43 4,-12 10,-23 18,-32 8,-9 17,-16 29,-20 12,-5 25,-8 41,-8 15,0 28,2 39,6 12,4 21,10 29,19 7,8 13,18 17,30 4,13 6,28 6,44zm-42 2c0,-10 -1,-19 -3,-28 -1,-8 -4,-15 -8,-21 -4,-6 -9,-11 -15,-14 -7,-3 -15,-5 -24,-5 -10,0 -18,2 -25,6 -6,3 -12,8 -16,14 -4,6 -7,14 -8,22 -2,8 -3,17 -3,26 0,11 1,20 3,29 1,8 4,15 8,22 4,6 9,10 15,13 7,4 15,5 25,5 9,0 18,-2 24,-5 7,-4 12,-9 16,-15 4,-6 7,-14 8,-22 2,-8 3,-17 3,-27zm220 93c0,1 0,2 -1,3 0,1 -1,1 -3,2 -2,0 -4,1 -6,1 -3,0 -6,0 -10,0 -5,0 -8,0 -11,0 -3,0 -5,-1 -6,-1 -2,-1 -3,-1 -4,-2 -1,-1 -2,-3 -2,-4l-16 -44c-2,-6 -4,-11 -7,-16 -2,-4 -5,-7 -8,-10 -3,-3 -6,-5 -10,-6 -3,-1 -8,-1 -12,-1l-9 0 0 78c0,1 0,2 -1,3 -1,1 -2,1 -3,2 -2,0 -4,1 -6,1 -3,0 -6,0 -10,0 -4,0 -7,0 -9,0 -3,0 -5,-1 -7,-1 -1,-1 -2,-1 -3,-2 0,-1 -1,-2 -1,-3l0 -185c0,-1 1,-2 1,-3 1,0 2,-1 3,-2 2,0 4,0 7,-1 2,0 5,0 9,0 4,0 7,0 10,0 2,1 4,1 6,1 1,1 2,2 3,2 1,1 1,2 1,3l0 74 9 0c4,0 8,-1 12,-2 3,-2 6,-3 9,-6 3,-3 5,-6 8,-10 2,-4 4,-10 6,-16l13 -39c1,-1 2,-2 2,-3 1,-1 2,-2 4,-2 1,-1 3,-1 6,-2 2,0 6,0 10,0 4,0 7,0 10,0 2,1 4,1 6,1 1,1 2,1 3,2 0,1 1,2 1,3 0,1 -1,3 -1,5 -1,2 -1,4 -2,7l-14 35c-2,7 -4,12 -7,17 -2,4 -5,8 -7,11 -3,3 -6,6 -9,8 -3,2 -6,4 -10,5l0 0c4,2 8,4 11,6 3,2 7,5 9,8 3,3 6,8 9,12 2,5 5,11 8,18l16 41c1,4 2,7 3,8 0,2 0,3 0,4z"/>
  </g>
 </g>
</svg>
